<svg width="30" height="30" viewBox="0 0 25 25" fill="none" xmlns="http://www.w3.org/2000/svg">
<path d="M4.61992 9.96216H5.3418C5.60759 9.96216 5.82305 9.74666 5.82305 9.48091V8.75908C5.82305 8.49329 5.60759 8.27783 5.3418 8.27783H4.61992C4.35408 8.27783 4.13867 8.49329 4.13867 8.75908V9.48091C4.13867 9.74666 4.35408 9.96216 4.61992 9.96216Z" fill="black"/>
<path d="M4.61992 12.8495H5.3418C5.60759 12.8495 5.82305 12.634 5.82305 12.3683V11.6463C5.82305 11.3805 5.60759 11.165 5.3418 11.165H4.61992C4.35408 11.165 4.13867 11.3805 4.13867 11.6463V12.3683C4.13867 12.634 4.35408 12.8495 4.61992 12.8495Z" fill="black"/>
<path d="M4.61992 15.7371H5.3418C5.60759 15.7371 5.82305 15.5216 5.82305 15.2558V14.534C5.82305 14.2682 5.60759 14.0527 5.3418 14.0527H4.61992C4.35408 14.0527 4.13867 14.2682 4.13867 14.534V15.2558C4.13867 15.5216 4.35408 15.7371 4.61992 15.7371Z" fill="black"/>
<path d="M4.61992 18.6242H5.3418C5.60759 18.6242 5.82305 18.4087 5.82305 18.143V17.4212C5.82305 17.1554 5.60759 16.9399 5.3418 16.9399H4.61992C4.35408 16.9399 4.13867 17.1554 4.13867 17.4212V18.143C4.13867 18.4087 4.35408 18.6242 4.61992 18.6242Z" fill="black"/>
<path d="M7.14678 9.96216H7.8687C8.13445 9.96216 8.34995 9.74666 8.34995 9.48091V8.75908C8.34995 8.49329 8.13445 8.27783 7.8687 8.27783H7.14678C6.88098 8.27783 6.66553 8.49329 6.66553 8.75908V9.48091C6.66553 9.74666 6.88098 9.96216 7.14678 9.96216Z" fill="black"/>
<path d="M7.14678 12.8495H7.8687C8.13445 12.8495 8.34995 12.634 8.34995 12.3683V11.6463C8.34995 11.3805 8.13445 11.165 7.8687 11.165H7.14678C6.88098 11.165 6.66553 11.3805 6.66553 11.6463V12.3683C6.66553 12.634 6.88098 12.8495 7.14678 12.8495Z" fill="black"/>
<path d="M7.14678 15.7371H7.8687C8.13445 15.7371 8.34995 15.5216 8.34995 15.2558V14.534C8.34995 14.2682 8.13445 14.0527 7.8687 14.0527H7.14678C6.88098 14.0527 6.66553 14.2682 6.66553 14.534V15.2558C6.66553 15.5216 6.88098 15.7371 7.14678 15.7371Z" fill="black"/>
<path d="M7.14678 18.6242H7.8687C8.13445 18.6242 8.34995 18.4087 8.34995 18.143V17.4212C8.34995 17.1554 8.13445 16.9399 7.8687 16.9399H7.14678C6.88098 16.9399 6.66553 17.1554 6.66553 17.4212V18.143C6.66553 18.4087 6.88098 18.6242 7.14678 18.6242Z" fill="black"/>
<path d="M9.67314 9.96216H10.3951C10.6609 9.96216 10.8763 9.74666 10.8763 9.48091V8.75908C10.8763 8.49329 10.6609 8.27783 10.3951 8.27783H9.67314C9.4074 8.27783 9.19189 8.49329 9.19189 8.75908V9.48091C9.19189 9.74666 9.40735 9.96216 9.67314 9.96216Z" fill="black"/>
<path d="M9.67314 12.8495H10.3951C10.6609 12.8495 10.8763 12.634 10.8763 12.3683V11.6463C10.8763 11.3805 10.6609 11.165 10.3951 11.165H9.67314C9.4074 11.165 9.19189 11.3805 9.19189 11.6463V12.3683C9.19189 12.634 9.40735 12.8495 9.67314 12.8495Z" fill="black"/>
<path d="M9.67314 15.7371H10.3951C10.6609 15.7371 10.8763 15.5216 10.8763 15.2558V14.534C10.8763 14.2682 10.6609 14.0527 10.3951 14.0527H9.67314C9.4074 14.0527 9.19189 14.2682 9.19189 14.534V15.2558C9.19189 15.5216 9.40735 15.7371 9.67314 15.7371Z" fill="black"/>
<path d="M9.67314 18.6242H10.3951C10.6609 18.6242 10.8763 18.4087 10.8763 18.143V17.4212C10.8763 17.1554 10.6609 16.9399 10.3951 16.9399H9.67314C9.4074 16.9399 9.19189 17.1554 9.19189 17.4212V18.143C9.19189 18.4087 9.40735 18.6242 9.67314 18.6242Z" fill="black"/>
<path d="M14.2449 9.96216H14.9668C15.2326 9.96216 15.448 9.74666 15.448 9.48091V8.75908C15.448 8.49329 15.2326 8.27783 14.9668 8.27783H14.2449C13.9791 8.27783 13.7637 8.49329 13.7637 8.75908V9.48091C13.7637 9.74666 13.9791 9.96216 14.2449 9.96216Z" fill="black"/>
<path d="M14.2449 7.07442H14.9668C15.2326 7.07442 15.448 6.85891 15.448 6.59317V5.87139C15.448 5.60564 15.2326 5.39014 14.9668 5.39014H14.2449C13.9791 5.39014 13.7637 5.60564 13.7637 5.87139V6.59317C13.7637 6.85891 13.9791 7.07442 14.2449 7.07442Z" fill="black"/>
<path d="M14.2449 4.18696H14.9668C15.2326 4.18696 15.448 3.97146 15.448 3.70571V2.98369C15.448 2.71795 15.2326 2.50244 14.9668 2.50244H14.2449C13.9791 2.50244 13.7637 2.71795 13.7637 2.98369V3.70571C13.7637 3.97146 13.9791 4.18696 14.2449 4.18696Z" fill="black"/>
<path d="M14.2449 12.8495H14.9668C15.2326 12.8495 15.448 12.634 15.448 12.3683V11.6463C15.448 11.3805 15.2326 11.165 14.9668 11.165H14.2449C13.9791 11.165 13.7637 11.3805 13.7637 11.6463V12.3683C13.7637 12.634 13.9791 12.8495 14.2449 12.8495Z" fill="black"/>
<path d="M14.2449 15.7371H14.9668C15.2326 15.7371 15.448 15.5216 15.448 15.2558V14.534C15.448 14.2682 15.2326 14.0527 14.9668 14.0527H14.2449C13.9791 14.0527 13.7637 14.2682 13.7637 14.534V15.2558C13.7637 15.5216 13.9791 15.7371 14.2449 15.7371Z" fill="black"/>
<path d="M14.2449 18.6242H14.9668C15.2326 18.6242 15.448 18.4087 15.448 18.143V17.4212C15.448 17.1554 15.2326 16.9399 14.9668 16.9399H14.2449C13.9791 16.9399 13.7637 17.1554 13.7637 17.4212V18.143C13.7637 18.4087 13.9791 18.6242 14.2449 18.6242Z" fill="black"/>
<path d="M16.7718 9.96216H17.4937C17.7594 9.96216 17.9749 9.74666 17.9749 9.48091V8.75908C17.9749 8.49329 17.7594 8.27783 17.4937 8.27783H16.7718C16.506 8.27783 16.2905 8.49329 16.2905 8.75908V9.48091C16.2905 9.74666 16.506 9.96216 16.7718 9.96216Z" fill="black"/>
<path d="M16.7718 7.07442H17.4937C17.7594 7.07442 17.9749 6.85891 17.9749 6.59317V5.87139C17.9749 5.60564 17.7594 5.39014 17.4937 5.39014H16.7718C16.506 5.39014 16.2905 5.60564 16.2905 5.87139V6.59317C16.2905 6.85891 16.506 7.07442 16.7718 7.07442Z" fill="black"/>
<path d="M16.7718 4.18696H17.4937C17.7594 4.18696 17.9749 3.97146 17.9749 3.70571V2.98369C17.9749 2.71795 17.7594 2.50244 17.4937 2.50244H16.7718C16.506 2.50244 16.2905 2.71795 16.2905 2.98369V3.70571C16.2905 3.97146 16.506 4.18696 16.7718 4.18696Z" fill="black"/>
<path d="M16.7718 12.8495H17.4937C17.7594 12.8495 17.9749 12.634 17.9749 12.3683V11.6463C17.9749 11.3805 17.7594 11.165 17.4937 11.165H16.7718C16.506 11.165 16.2905 11.3805 16.2905 11.6463V12.3683C16.2905 12.634 16.506 12.8495 16.7718 12.8495Z" fill="black"/>
<path d="M16.7718 15.7371H17.4937C17.7594 15.7371 17.9749 15.5216 17.9749 15.2558V14.534C17.9749 14.2682 17.7594 14.0527 17.4937 14.0527H16.7718C16.506 14.0527 16.2905 14.2682 16.2905 14.534V15.2558C16.2905 15.5216 16.506 15.7371 16.7718 15.7371Z" fill="black"/>
<path d="M16.7718 18.6242H17.4937C17.7594 18.6242 17.9749 18.4087 17.9749 18.143V17.4212C17.9749 17.1554 17.7594 16.9399 17.4937 16.9399H16.7718C16.506 16.9399 16.2905 17.1554 16.2905 17.4212V18.143C16.2905 18.4087 16.506 18.6242 16.7718 18.6242Z" fill="black"/>
<path d="M19.2981 9.96216H20.02C20.2857 9.96216 20.5012 9.74666 20.5012 9.48091V8.75908C20.5012 8.49329 20.2857 8.27783 20.02 8.27783H19.2981C19.0324 8.27783 18.8169 8.49329 18.8169 8.75908V9.48091C18.8169 9.74666 19.0324 9.96216 19.2981 9.96216Z" fill="black"/>
<path d="M19.2981 7.07442H20.02C20.2857 7.07442 20.5012 6.85891 20.5012 6.59317V5.87139C20.5012 5.60564 20.2857 5.39014 20.02 5.39014H19.2981C19.0324 5.39014 18.8169 5.60564 18.8169 5.87139V6.59317C18.8169 6.85891 19.0324 7.07442 19.2981 7.07442Z" fill="black"/>
<path d="M19.2981 4.18696H20.02C20.2857 4.18696 20.5012 3.97146 20.5012 3.70571V2.98369C20.5012 2.71795 20.2857 2.50244 20.02 2.50244H19.2981C19.0324 2.50244 18.8169 2.71795 18.8169 2.98369V3.70571C18.8169 3.97146 19.0324 4.18696 19.2981 4.18696Z" fill="black"/>
<path d="M19.2981 12.8495H20.02C20.2857 12.8495 20.5012 12.634 20.5012 12.3683V11.6463C20.5012 11.3805 20.2857 11.165 20.02 11.165H19.2981C19.0324 11.165 18.8169 11.3805 18.8169 11.6463V12.3683C18.8169 12.634 19.0324 12.8495 19.2981 12.8495Z" fill="black"/>
<path d="M19.2981 15.7371H20.02C20.2857 15.7371 20.5012 15.5216 20.5012 15.2558V14.534C20.5012 14.2682 20.2857 14.0527 20.02 14.0527H19.2981C19.0324 14.0527 18.8169 14.2682 18.8169 14.534V15.2558C18.8169 15.5216 19.0324 15.7371 19.2981 15.7371Z" fill="black"/>
<path d="M19.2981 18.6242H20.02C20.2857 18.6242 20.5012 18.4087 20.5012 18.143V17.4212C20.5012 17.1554 20.2857 16.9399 20.02 16.9399H19.2981C19.0324 16.9399 18.8169 17.1554 18.8169 17.4212V18.143C18.8169 18.4087 19.0324 18.6242 19.2981 18.6242Z" fill="black"/>
<path d="M5.57109 21.7524C5.3053 21.7524 5.08984 21.9679 5.08984 22.2337C5.08984 22.4995 5.3053 22.7149 5.57109 22.7149H5.58245C5.8482 22.7149 6.0637 22.4995 6.0637 22.2337C6.0637 21.9679 5.8482 21.7524 5.58245 21.7524H5.57109Z" fill="black"/>
<path d="M15.1961 21.7524C14.9303 21.7524 14.7148 21.9679 14.7148 22.2337C14.7148 22.4995 14.9303 22.7149 15.1961 22.7149H15.2074C15.4731 22.7149 15.6887 22.4995 15.6887 22.2337C15.6887 21.9679 15.4731 21.7524 15.2074 21.7524H15.1961Z" fill="black"/>
<path d="M0.492607 23.6777H0.48125C0.215407 23.6777 0 23.8932 0 24.159C0 24.4247 0.215407 24.6402 0.48125 24.6402H0.492607C0.758354 24.6402 0.973857 24.4247 0.973857 24.159C0.973857 23.8932 0.758402 23.6777 0.492607 23.6777Z" fill="black"/>
<path d="M24.1587 23.6777H24.1473C23.8815 23.6777 23.666 23.8932 23.666 24.159C23.666 24.4247 23.8815 24.6402 24.1473 24.6402H24.1587C24.4245 24.6402 24.64 24.4247 24.64 24.159C24.64 23.8932 24.4245 23.6777 24.1587 23.6777Z" fill="black"/>
<path fill-rule="evenodd" clip-rule="evenodd" d="M22.7648 23.6775H22.4261V0.48125C22.4261 0.215456 22.2106 0 21.9449 0H12.32C12.0542 0 11.8388 0.215456 11.8388 0.48125V6.35264H2.69501C2.42916 6.35264 2.21376 6.56815 2.21376 6.83389V23.6775H1.87529C1.6095 23.6775 1.39404 23.893 1.39404 24.1587C1.39404 24.4245 1.6095 24.64 1.87529 24.64H2.69501H7.50751H10.3951H12.32H17.1325H20.02H21.9449H21.9449H21.945H22.7648C23.0306 24.64 23.246 24.4245 23.246 24.1587C23.246 23.893 23.0306 23.6775 22.7648 23.6775ZM9.91385 23.6775H7.98876V21.7526H9.91385V23.6775ZM10.8764 23.6775H11.8388V7.31514H3.17626V21.7526H4.18852C4.45426 21.7526 4.66977 21.9681 4.66977 22.2338C4.66977 22.4996 4.45426 22.7151 4.18852 22.7151H3.17626V23.6775H7.02626V21.2714C7.02626 21.0056 7.24166 20.7901 7.50751 20.7901H10.3951C10.6609 20.7901 10.8764 21.0056 10.8764 21.2714V23.6775ZM19.5387 23.6775H17.6138V21.7526H19.5387V23.6775ZM20.5012 23.6775H21.4636V0.9625H12.8013V6.83389V21.7526H13.8135C14.0793 21.7526 14.2947 21.9681 14.2947 22.2338C14.2947 22.4996 14.0793 22.7151 13.8135 22.7151H12.8013V23.6775H16.6513V21.2714C16.6513 21.0056 16.8667 20.7901 17.1325 20.7901H20.02C20.2857 20.7901 20.5012 21.0056 20.5012 21.2714V23.6775Z" fill="black"/>
</svg>
