<svg width="30" height="30" viewBox="0 0 26 25" fill="none" xmlns="http://www.w3.org/2000/svg">
<path fill-rule="evenodd" clip-rule="evenodd" d="M3.92396 12.296H24.0074C24.6865 12.296 25.237 12.8465 25.2369 13.5256C25.2369 14.2047 24.6864 14.7552 24.0073 14.7552C23.8885 17.739 22.6097 20.9032 20.6956 21.8418C20.9823 22.148 21.1407 22.5525 21.1382 22.972C21.1329 23.8774 20.3945 24.607 19.4891 24.6017C18.5837 24.5963 17.854 23.858 17.8594 22.9525C17.8624 22.6638 17.9416 22.381 18.0889 22.1328H7.78899C8.15647 22.7592 8.06805 23.5528 7.57165 24.0829C6.95276 24.7438 5.91529 24.7779 5.25433 24.1591C4.59342 23.5402 4.55927 22.5027 5.17815 21.8417C3.26406 20.9032 1.98528 17.739 1.87462 14.7552C1.1955 14.7552 0.64502 14.2046 0.64502 13.5256C0.64502 12.8465 1.19555 12.296 1.87462 12.296H3.10422V3.27894C3.10422 1.46803 4.57224 0 6.38321 0H7.61281C7.83913 0 8.02266 0.183479 8.02266 0.40985V2.50022C8.97694 2.69498 9.6623 3.53457 9.66211 4.50854C9.66211 4.73491 9.47863 4.91839 9.25226 4.91839H5.97331C5.74694 4.91839 5.56346 4.73491 5.56346 4.50854C5.56327 3.53457 6.24863 2.69503 7.20291 2.50022V0.819748H6.38316C5.02498 0.819748 3.92396 1.92077 3.92396 3.27894V12.296ZM8.77267 4.09865C8.64898 3.74701 8.37242 3.47045 8.02078 3.34677C7.38019 3.1214 6.67817 3.45805 6.45285 4.09865H8.77267ZM14.1706 13.1157H19.9087V17.6243H14.1706V13.1157ZM1.87462 13.1157C1.64825 13.1157 1.46477 13.2992 1.46477 13.5256C1.46477 13.752 1.64825 13.9354 1.87462 13.9355H13.3509V13.1157H1.87462ZM6.38316 23.7722C5.93042 23.7722 5.56341 23.4052 5.56341 22.9525C5.56341 22.4997 5.93042 22.1327 6.38316 22.1327C6.8359 22.1327 7.20291 22.4997 7.20291 22.9525C7.20291 23.4052 6.8359 23.7722 6.38316 23.7722ZM18.6791 22.9525C18.6791 23.4052 19.0462 23.7722 19.4989 23.7722C19.9516 23.7722 20.3186 23.4052 20.3186 22.9525C20.3186 22.4997 19.9516 22.1327 19.4989 22.1327C19.0462 22.1327 18.6791 22.4997 18.6791 22.9525ZM19.4989 21.313H6.38316C4.55927 21.313 2.83784 18.1816 2.69437 14.7552H13.3509V18.8538C13.3509 19.0802 13.5344 19.2637 13.7608 19.2637C13.9871 19.2637 14.1706 19.0801 14.1706 18.8538V18.444H14.9904V18.8538C14.9904 19.0802 15.1738 19.2637 15.4002 19.2637C15.6266 19.2637 15.8101 19.0801 15.8101 18.8538V18.444H16.6298V18.8538C16.6298 19.0802 16.8133 19.2637 17.0396 19.2637C17.266 19.2637 17.4495 19.0801 17.4495 18.8538V18.444H18.2692V18.8538C18.2692 19.0802 18.4527 19.2637 18.6791 19.2637C18.9055 19.2637 19.0889 19.0801 19.0889 18.8538V18.444H19.9087V18.8538C19.9087 19.0802 20.0922 19.2637 20.3185 19.2637C20.5449 19.2637 20.7284 19.0801 20.7284 18.8538V14.7552H23.1876C23.0442 18.1817 21.3228 21.313 19.4989 21.313ZM20.7284 13.9354H24.0074C24.2338 13.9354 24.4172 13.7519 24.4172 13.5255C24.4172 13.2992 24.2338 13.1157 24.0074 13.1157H20.7284V13.9354Z" fill="black"/>
<path d="M8.02283 6.14813C8.02283 5.92176 7.8393 5.73828 7.61298 5.73828C7.38665 5.73828 7.20312 5.92176 7.20312 6.14813V6.55798C7.20312 6.78435 7.3866 6.96783 7.61298 6.96783C7.83935 6.96783 8.02283 6.78435 8.02283 6.55798V6.14813Z" fill="black"/>
<path d="M8.02283 8.19745C8.02283 7.97108 7.8393 7.7876 7.61298 7.7876C7.38665 7.7876 7.20312 7.97108 7.20312 8.19745V8.6073C7.20312 8.83367 7.3866 9.01715 7.61298 9.01715C7.83935 9.01715 8.02283 8.83367 8.02283 8.6073V8.19745Z" fill="black"/>
<path d="M7.61298 9.83691C7.3866 9.83691 7.20312 10.0204 7.20312 10.2468V10.6566C7.20312 10.883 7.3866 11.0665 7.61298 11.0665C7.83935 11.0665 8.02283 10.883 8.02283 10.6566V10.2468C8.02283 10.0204 7.83935 9.83691 7.61298 9.83691Z" fill="black"/>
<path d="M9.66199 6.14813C9.66199 5.92176 9.47851 5.73828 9.25214 5.73828C9.02576 5.73828 8.84229 5.92176 8.84229 6.14813V6.55798C8.84229 6.78435 9.02576 6.96783 9.25214 6.96783C9.47851 6.96783 9.66199 6.78435 9.66199 6.55798V6.14813Z" fill="black"/>
<path d="M9.66199 8.19745C9.66199 7.97108 9.47851 7.7876 9.25214 7.7876C9.02576 7.7876 8.84229 7.97108 8.84229 8.19745V8.6073C8.84229 8.83367 9.02576 9.01715 9.25214 9.01715C9.47851 9.01715 9.66199 8.83367 9.66199 8.6073V8.19745Z" fill="black"/>
<path d="M9.25214 9.83691C9.02576 9.83691 8.84229 10.0204 8.84229 10.2468V10.6566C8.84229 10.883 9.02576 11.0665 9.25214 11.0665C9.47851 11.0665 9.66199 10.883 9.66199 10.6566V10.2468C9.66203 10.0204 9.47851 9.83691 9.25214 9.83691Z" fill="black"/>
<path d="M6.38318 6.14813C6.38318 5.92176 6.1997 5.73828 5.97333 5.73828C5.74696 5.73828 5.56348 5.92176 5.56348 6.14813V6.55798C5.56348 6.78435 5.74696 6.96783 5.97333 6.96783C6.1997 6.96783 6.38318 6.78435 6.38318 6.55798V6.14813Z" fill="black"/>
<path d="M6.38318 8.19745C6.38318 7.97108 6.1997 7.7876 5.97333 7.7876C5.74696 7.7876 5.56348 7.97108 5.56348 8.19745V8.6073C5.56348 8.83367 5.74696 9.01715 5.97333 9.01715C6.1997 9.01715 6.38318 8.83367 6.38318 8.6073V8.19745Z" fill="black"/>
<path d="M5.97333 9.83691C5.74696 9.83691 5.56348 10.0204 5.56348 10.2468V10.6566C5.56348 10.883 5.74696 11.0665 5.97333 11.0665C6.1997 11.0665 6.38318 10.883 6.38318 10.6566V10.2468C6.38318 10.0204 6.19965 9.83691 5.97333 9.83691Z" fill="black"/>
</svg>
