<svg width="30" height="30" viewBox="0 0 26 15" fill="none" xmlns="http://www.w3.org/2000/svg">
<path fill-rule="evenodd" clip-rule="evenodd" d="M24.9433 3.58518H22.521C22.335 3.58518 22.1842 3.736 22.1842 3.92205V6.19009H13.1526C12.4106 6.19144 11.7822 6.73755 11.6773 7.47214H10.0726V7.17049C10.0713 5.92186 9.05939 4.90999 7.81076 4.90861H5.32424C4.72922 4.90859 4.15834 5.14386 3.73611 5.56311V0.360801C3.73611 0.17475 3.58529 0.0239258 3.39924 0.0239258H0.977012C0.790961 0.0239258 0.640137 0.17475 0.640137 0.360801V14.5577C0.640137 14.7437 0.790961 14.8946 0.977012 14.8946H3.39924C3.58529 14.8946 3.73611 14.7437 3.73611 14.5577V12.0688H22.1842V14.5577C22.1842 14.7437 22.335 14.8946 22.521 14.8946H24.9433C25.1293 14.8946 25.2801 14.7437 25.2801 14.5577V3.92205C25.2801 3.736 25.1293 3.58518 24.9433 3.58518ZM12.3345 7.68196C12.335 7.23034 12.701 6.86437 13.1526 6.86384H22.1842V9.66105H12.3345V7.68196ZM3.73611 9.66105H11.6608V8.14589H3.73611V9.66105ZM5.32424 5.58198H7.81076C8.68761 5.58293 9.39814 6.29364 9.39889 7.17049V7.47252H3.73611V7.17049C3.73686 6.29364 4.44739 5.58293 5.32424 5.58198ZM1.31389 14.2208H3.06236V0.697676H1.31389V14.2208ZM3.73611 11.3951V10.3348H22.1842V11.3951H3.73611ZM22.8579 14.2208H24.6064V4.25893H22.8579V14.2208Z" fill="black"/>
</svg>
