<svg width="19" height="17" viewBox="0 0 19 17" fill="none" xmlns="http://www.w3.org/2000/svg">
<path fill-rule="evenodd" clip-rule="evenodd" d="M17.0307 10.7008H18.0474C18.4686 10.7008 18.81 11.0423 18.81 11.4634C18.81 11.8845 18.4686 12.226 18.0475 12.226H17.7933V16.0388C17.7933 16.46 17.4518 16.8014 17.0307 16.8014H1.77935C1.35821 16.8014 1.01677 16.46 1.01677 16.0388V12.226H0.762577C0.341446 12.226 0 11.8845 0 11.4634C0 11.0423 0.341446 10.7008 0.762577 10.7008H1.77935H4.06704V5.36286C4.06704 2.4195 6.4616 0.0249023 9.405 0.0249023C12.3484 0.0249023 14.743 2.4195 14.743 5.36286V10.7008H17.0307ZM2.54188 15.2762H4.067V12.226H2.54188V15.2762ZM8.64242 1.62673V5.36286H5.59215C5.59215 3.52158 6.90419 1.98103 8.64242 1.62673ZM8.64242 6.88798H5.59215V10.7008H8.64242V6.88798ZM7.11731 15.2762H5.59219V12.226H7.11731V15.2762ZM8.64242 15.2762H10.1676V12.226H8.64242V15.2762ZM13.2178 15.2762H11.6927V12.226H13.2178V15.2762ZM10.1676 10.7008H13.2178V6.88798H10.1676V10.7008ZM10.1676 5.36286V1.62673C11.9058 1.98103 13.2178 3.52154 13.2178 5.36286H10.1676ZM14.743 15.2762H16.2681V12.226H14.743V15.2762Z" fill="black"/>
</svg>
