<svg width="16" height="23" viewBox="0 0 16 23" fill="none" xmlns="http://www.w3.org/2000/svg">
<path fill-rule="evenodd" clip-rule="evenodd" d="M7.95808 0.200195C12.3462 0.200195 15.9162 3.77016 15.9162 8.15827C15.9162 11.9139 13.301 15.0698 9.79621 15.9017L10.4349 19.7337H12.2988C13.2973 19.7348 14.1064 20.5439 14.1075 21.5423C14.1075 21.7421 13.9455 21.904 13.7458 21.904H2.17038C1.97061 21.904 1.80865 21.7421 1.80865 21.5423C1.80978 20.5439 2.61888 19.7348 3.61731 19.7337H5.48126L6.11994 15.9017C2.61513 15.0698 0 11.9139 0 8.15827C0 3.77016 3.56997 0.200195 7.95808 0.200195ZM13.322 21.1806C13.1683 20.7473 12.7586 20.4577 12.2988 20.4571H3.61731C3.15758 20.4577 2.74789 20.7473 2.59411 21.1806H13.322ZM6.21472 19.7337L6.83097 16.0362C7.57857 16.1431 8.33758 16.1431 9.08519 16.0362L9.70144 19.7337H6.21472ZM0.723462 8.15827C0.723462 12.1474 3.96891 15.3929 7.95808 15.3929C11.9472 15.3929 15.1927 12.1474 15.1927 8.15827C15.1927 4.16911 11.9472 0.923657 7.95808 0.923657C3.96891 0.923657 0.723462 4.16911 0.723462 8.15827Z" fill="black"/>
<path d="M8.31957 18.2866H7.59611C7.39633 18.2866 7.23438 18.4486 7.23438 18.6484C7.23438 18.8481 7.39633 19.0101 7.59611 19.0101H8.31957C8.51935 19.0101 8.6813 18.8481 8.6813 18.6484C8.6813 18.4486 8.51935 18.2866 8.31957 18.2866Z" fill="black"/>
<path d="M8.31957 16.8398H7.59611C7.39633 16.8398 7.23438 17.0018 7.23438 17.2016C7.23438 17.4014 7.39633 17.5633 7.59611 17.5633H8.31957C8.51935 17.5633 8.6813 17.4014 8.6813 17.2016C8.6813 17.0018 8.51935 16.8398 8.31957 16.8398Z" fill="black"/>
<path fill-rule="evenodd" clip-rule="evenodd" d="M11.1742 8.3692L13.4593 10.658C13.6001 10.7993 13.6001 11.0278 13.4592 11.169L11.9358 12.6946C11.5988 13.0324 11.1412 13.2222 10.664 13.2222C10.1869 13.2222 9.72928 13.0324 9.39226 12.6946L8.12263 11.4231C8.05601 11.3563 7.99467 11.2845 7.93914 11.2082C7.89349 11.2664 7.84432 11.3218 7.79192 11.3741L5.50338 13.659C5.36219 13.7998 5.13363 13.7998 4.99244 13.659L3.46684 12.1356C3.12903 11.7986 2.93919 11.341 2.93919 10.8639C2.93919 10.3867 3.12903 9.9291 3.46684 9.59208L4.73828 8.32245C4.80722 8.25364 4.88157 8.19047 4.9606 8.13353C4.88305 8.07713 4.81007 8.01468 4.74235 7.94679L2.4572 5.65798C2.31635 5.51679 2.31635 5.28823 2.4572 5.14704L3.98054 3.62144C4.31757 3.28364 4.77514 3.09379 5.25232 3.09379C5.7295 3.09379 6.18707 3.28364 6.5241 3.62144L7.79368 4.89288C7.8603 4.95967 7.92164 5.03153 7.97717 5.10779C8.02282 5.04956 8.07199 4.99418 8.12439 4.94194L10.4129 2.65702C10.5541 2.51602 10.7829 2.51602 10.9241 2.65702L12.4497 4.18036C12.7875 4.51739 12.9773 4.97496 12.9773 5.45214C12.9773 5.92932 12.7875 6.38689 12.4497 6.72392L11.1783 7.99355C11.1093 8.06235 11.035 8.12552 10.9559 8.18246C11.0335 8.23887 11.1065 8.30131 11.1742 8.3692ZM10.6685 3.42394L8.63529 5.45415C8.5688 5.52044 8.51131 5.59517 8.46428 5.67643C9.45972 5.88009 10.2374 6.65841 10.4402 7.65402C10.5232 7.60672 10.5995 7.54865 10.6671 7.48133L11.9385 6.2117C12.1404 6.01041 12.2539 5.73702 12.2539 5.45191C12.2539 5.1668 12.1404 4.89342 11.9385 4.69212L10.6685 3.42394ZM3.22434 5.4026L4.49252 4.13257C4.69382 3.93066 4.96721 3.81718 5.25232 3.81718C5.53743 3.81718 5.81081 3.93066 6.01211 4.13257L7.28174 5.40396C7.36028 5.48266 7.42613 5.57307 7.47694 5.67196C6.48614 5.86422 5.70383 6.626 5.48529 7.61133C5.40075 7.56352 5.32307 7.50447 5.25437 7.4358L3.22434 5.4026ZM5.24804 12.8922L7.28124 10.862C7.34772 10.7957 7.4052 10.721 7.45221 10.6397C6.4568 10.4361 5.67914 9.65777 5.47625 8.6622C5.39334 8.70948 5.31706 8.76753 5.2494 8.83484L3.97801 10.1045C3.7761 10.3058 3.66262 10.5792 3.66262 10.8643C3.66262 11.1494 3.7761 11.4228 3.97801 11.6241L5.24804 12.8922ZM7.97002 9.96674H7.94317C6.95484 9.95827 6.15625 9.15818 6.14961 8.16984C6.14925 8.14873 6.14961 8.12797 6.15043 8.10518C6.17903 7.13193 6.97286 6.35593 7.94651 6.34943H7.97337C8.96058 6.35786 9.75874 7.15622 9.76692 8.14344V8.14633C9.76728 8.16745 9.76692 8.1882 9.76611 8.21099C9.73751 9.18424 8.94367 9.96025 7.97002 9.96674ZM10.6642 12.499C10.9493 12.499 11.2227 12.3855 11.424 12.1836L12.6924 10.9135L10.6622 8.88033C10.5935 8.81166 10.5158 8.75261 10.4312 8.7048C10.2127 9.69013 9.43039 10.4519 8.4396 10.6442C8.49041 10.7431 8.55626 10.8335 8.63479 10.9122L9.90442 12.1836C10.1057 12.3855 10.3791 12.499 10.6642 12.499Z" fill="black"/>
</svg>
