<svg width="19" height="23" viewBox="0 0 19 23" fill="none" xmlns="http://www.w3.org/2000/svg">
<path d="M8.79363 4.49258C9.97772 4.49258 10.9397 3.53169 10.9397 2.34641C10.9397 1.16077 9.97772 0.200195 8.79363 0.200195C7.60817 0.200195 6.64697 1.16077 6.64697 2.34641C6.64697 3.53169 7.60817 4.49258 8.79363 4.49258Z" fill="black"/>
<path d="M12.1099 16.6544C11.5396 18.6346 9.71403 20.0889 7.55263 20.0889C4.93522 20.0889 2.80667 17.9602 2.80667 15.3436C2.80667 13.4067 3.97518 11.7396 5.64276 11.0029V8.99121C2.91185 9.81376 0.916504 12.3488 0.916504 15.3436C0.916504 19.0024 3.89341 21.9793 7.55259 21.9793C10.2192 21.9793 12.5177 20.3945 13.5716 18.1205L12.8223 16.6483C12.612 16.6501 12.3683 16.6523 12.1099 16.6544Z" fill="black"/>
<path d="M18.3629 19.2017L15.4882 13.5499C15.2736 13.127 14.8399 12.8608 14.3654 12.8608H10.6835V12.0212H13.8523C14.1687 12.0212 14.4347 11.8558 14.6065 11.6175C14.7181 11.4623 14.7976 11.282 14.7976 11.0759C14.7976 10.554 14.3748 10.1307 13.8523 10.1307H11.9432H10.6835V7.28301C10.6835 6.49982 10.1028 5.39258 8.79371 5.39258C7.74969 5.39258 6.90332 6.23908 6.90332 7.28301V13.4528C6.90332 14.5178 7.76668 15.3811 8.83174 15.3811H12.2964H13.5927L16.1171 20.3444C16.3389 20.7815 16.7816 21.0338 17.241 21.0338C17.4336 21.0338 17.6289 20.9898 17.8113 20.8964C18.4326 20.5813 18.6794 19.822 18.3629 19.2017Z" fill="black"/>
</svg>
