<svg width="18" height="20" viewBox="0 0 18 20" fill="none" xmlns="http://www.w3.org/2000/svg">
<path fill-rule="evenodd" clip-rule="evenodd" d="M16.8225 0H0.580359C0.260001 0 0.000280867 0.25972 0.000280867 0.580078L0.000271561 0.692165C0.000146188 2.12994 -0.00113626 16.8369 0.00321993 16.8802C0.0328039 17.1787 0.286685 17.4023 0.580398 17.4023H0.657741V19.2199C0.657741 19.5403 0.917462 19.8 1.23782 19.8H16.2425C16.5629 19.8 16.8226 19.5403 16.8226 19.2199V17.4023C17.1446 17.4023 17.4027 17.1391 17.4027 16.8223V0.580078C17.4026 0.25972 17.1429 0 16.8225 0ZM1.16044 16.2422V5.80078H16.2425V16.2422H1.16044ZM10.4417 4.64062H16.2425V1.16016H10.4417V4.64062ZM9.28153 1.16016V4.64062H1.16044V1.16016H9.28153ZM1.81786 17.4023V18.6398H15.6624V17.4023H1.81786Z" fill="black"/>
<circle cx="14.502" cy="2.90039" r="0.580078" fill="black"/>
<circle cx="12.1816" cy="2.90039" r="0.580078" fill="black"/>
<circle cx="2.90039" cy="2.90039" r="0.580078" fill="black"/>
<path d="M5.2207 3.48047H7.54102C7.86137 3.48047 8.12109 3.22075 8.12109 2.90039C8.12109 2.58003 7.86137 2.32031 7.54102 2.32031H5.2207C4.90035 2.32031 4.64062 2.58003 4.64062 2.90039C4.64062 3.22075 4.90031 3.48047 5.2207 3.48047Z" fill="black"/>
<path d="M11.0219 6.96094H6.41992C6.09956 6.96094 5.83984 7.22066 5.83984 7.54102C5.83984 7.86137 6.09956 8.12109 6.41992 8.12109H11.0219C11.3422 8.12109 11.602 7.86137 11.602 7.54102C11.602 7.22066 11.3422 6.96094 11.0219 6.96094Z" fill="black"/>
<path fill-rule="evenodd" clip-rule="evenodd" d="M6.37951 9.52366C4.47047 8.68812 2.32031 10.0957 2.32031 12.1817C2.32031 14.2627 4.46521 15.678 6.37993 14.8397C8.302 15.6786 10.4414 14.2592 10.4414 12.1817C10.4414 10.1018 8.29941 8.68611 6.37951 9.52366ZM3.48047 12.1817C3.48047 11.2222 4.26114 10.4415 5.2207 10.4415C6.18027 10.4415 6.96094 11.2222 6.96094 12.1817C6.96094 13.1413 6.18027 13.922 5.2207 13.922C4.26114 13.922 3.48047 13.1413 3.48047 12.1817ZM7.53947 13.9219L7.54102 13.922C8.50058 13.922 9.28125 13.1413 9.28125 12.1818C9.28125 11.225 8.50406 10.4416 7.53947 10.4416C8.31577 11.4733 8.31496 12.8912 7.53947 13.9219Z" fill="black"/>
<path fill-rule="evenodd" clip-rule="evenodd" d="M12.1816 9.86133H14.502C14.8223 9.86133 15.082 10.121 15.082 10.4414V11.6016C15.082 12.3578 14.597 13.0026 13.9219 13.242V13.9219C14.2422 13.9219 14.502 14.1816 14.502 14.502C14.502 14.8223 14.2422 15.082 13.9219 15.082H12.7617C12.4414 15.082 12.1816 14.8223 12.1816 14.502C12.1816 14.1816 12.4414 13.9219 12.7617 13.9219V13.242C12.0865 13.0026 11.6016 12.3578 11.6016 11.6016V10.4414C11.6016 10.121 11.8613 9.86133 12.1816 9.86133ZM13.3418 12.1816C13.6617 12.1816 13.9219 11.9214 13.9219 11.6016V11.0215H12.7617V11.6016C12.7617 11.9214 13.0219 12.1816 13.3418 12.1816Z" fill="black"/>
</svg>
