<svg width="28" height="18" viewBox="0 0 28 18" fill="none" xmlns="http://www.w3.org/2000/svg">
<path fill-rule="evenodd" clip-rule="evenodd" d="M25.3764 0.751334C25.3614 0.720299 25.3465 0.697023 25.3316 0.673747L25.3316 0.673741C25.3167 0.650467 25.3018 0.627193 25.2869 0.596161C24.8692 0.223747 23.9742 0.0996094 23.4371 0.0996094H23.3775H23.3178H23.2283H23.1686C22.6615 0.130644 21.7664 0.223747 21.3189 0.596161C21.2891 0.627196 21.2294 0.689265 21.2294 0.751334L19.7676 5.77892C19.7377 5.87202 19.7676 5.96513 19.8272 6.05823C19.8869 6.15133 19.9764 6.18237 20.0659 6.18237H21.1996V7.64099C20.9908 7.76513 20.8416 7.98237 20.8416 8.26168C20.8416 8.63409 21.1399 8.94444 21.4979 8.94444C21.8559 8.94444 22.1543 8.63409 22.1543 8.26168C22.1543 7.98237 22.0051 7.76513 21.7963 7.64099V6.18237H23.0195V14.2513C21.8858 14.3134 20.9013 14.6858 20.4537 15.2444C20.4239 15.3065 20.3941 15.3686 20.3941 15.4306V15.9893C20.3941 16.1755 20.5134 16.2996 20.6924 16.2996H25.973C26.152 16.2996 26.2714 16.1755 26.2714 15.9893V15.4306C26.2714 15.3686 26.2415 15.2755 26.2117 15.2444C25.7642 14.6858 24.7797 14.2824 23.646 14.2513V6.18237H26.5697C26.6592 6.18237 26.7487 6.15133 26.8084 6.05823C26.8681 5.96513 26.8681 5.87202 26.8681 5.77892L25.3764 0.751334ZM25.6449 15.5548V15.6789H20.9908V15.5548C21.3488 15.1824 22.1841 14.841 23.3178 14.841C24.3023 14.841 25.257 15.1203 25.6449 15.5548ZM21.7963 1.03064L20.4836 5.56168H26.152L24.8393 1.03064C24.5708 0.875471 24.0338 0.751333 23.3775 0.720299H23.3476H23.3178H23.288H23.2581C22.6018 0.751333 22.0648 0.875471 21.7963 1.03064Z" fill="black"/>
<path fill-rule="evenodd" clip-rule="evenodd" d="M18.7845 8.34764H17.5498V6.23828C17.5498 5.54049 16.9958 4.97266 16.315 4.97266H13.0223C12.7046 4.97266 12.4181 5.09922 12.1992 5.30172C11.9802 5.09922 11.6937 4.97266 11.376 4.97266H8.90652C8.58876 4.97266 8.30229 5.09922 8.08336 5.30172C7.86438 5.09922 7.57792 4.97266 7.2602 4.97266H3.96745C3.28668 4.97266 2.7327 5.54049 2.7327 6.23828V8.34764H1.49794C0.817165 8.34764 0.263184 8.91547 0.263184 9.61327V13.832C0.263184 14.0649 0.447587 14.2539 0.674782 14.2539H1.90954V15.5195C1.90954 15.7524 2.09394 15.9414 2.32114 15.9414H3.14429C3.29987 15.9414 3.44229 15.8511 3.51225 15.7085L4.22181 14.2539H16.0607L16.7702 15.7085C16.8402 15.8511 16.9826 15.9414 17.1382 15.9414H17.9613C18.1885 15.9414 18.3729 15.7524 18.3729 15.5195V14.2539H19.6077C19.8349 14.2539 20.0193 14.0649 20.0193 13.832V9.61327C20.0193 8.91547 19.4653 8.34764 18.7845 8.34764ZM1.08634 13.4101V9.61327C1.08634 9.38039 1.27155 9.19138 1.49794 9.19138H2.7327V11.3007V13.4101H2.3211H1.08634ZM2.7327 15.0976H2.88993L3.30153 14.2539H3.14429H2.7327V15.0976ZM8.49488 6.23824C8.49488 6.00537 8.68009 5.81635 8.90648 5.81635H11.376C11.6024 5.81635 11.7876 6.00537 11.7876 6.23824V10.8789H8.49492V6.23824H8.49488ZM3.55585 6.23824V8.76949V10.8789H7.67172V6.23824C7.67172 6.00537 7.48651 5.81635 7.26012 5.81635H3.96745C3.74107 5.81635 3.55585 6.00537 3.55585 6.23824ZM16.7266 13.4101H16.315H3.96745H3.55585V11.7226H8.08328H12.1991H16.7266V13.4101ZM16.7266 10.8789V8.76949V6.23824C16.7266 6.00537 16.5414 5.81635 16.315 5.81635H13.0223C12.796 5.81635 12.6107 6.00537 12.6107 6.23824V10.8789H16.7266ZM17.5498 15.0976H17.3925L16.981 14.2539H17.1382H17.5498V15.0976ZM17.9614 13.4101H19.1961V9.61327C19.1961 9.38039 19.0109 9.19138 18.7845 9.19138H17.5498V11.3008V13.4101H17.9614Z" fill="black"/>
</svg>
