<svg width="11" height="23" viewBox="0 0 11 23" fill="none" xmlns="http://www.w3.org/2000/svg">
<path fill-rule="evenodd" clip-rule="evenodd" d="M9.07499 3.92979V12.5763C10.189 13.5733 10.89 15.0222 10.89 16.6348C10.89 19.642 8.45217 22.0798 5.445 22.0798C2.43783 22.0798 0 19.642 0 16.6348C0 15.0222 0.701044 13.5733 1.81501 12.5762V3.92979C1.81501 1.92501 3.44022 0.299805 5.445 0.299805C7.44978 0.299805 9.07499 1.92501 9.07499 3.92979ZM1.81501 16.6348C1.81501 18.6396 3.44022 20.2648 5.445 20.2648C7.44978 20.2648 9.07499 18.6396 9.07507 16.6348C9.07507 15.5867 8.63092 14.6145 7.86462 13.9287L7.26006 13.3876V3.92979C7.26006 2.92736 6.44743 2.11478 5.44504 2.11478C4.44265 2.11478 3.63003 2.9274 3.63003 3.92979V13.3876L3.02546 13.9287C2.25916 14.6145 1.81501 15.5868 1.81501 16.6348Z" fill="black"/>
<rect x="4.5376" y="7.56006" width="1.81501" height="10.89" fill="black"/>
<circle cx="5.44516" cy="16.6346" r="2.7225" fill="black"/>
</svg>
