<svg width="19" height="20" viewBox="0 0 19 20" fill="none" xmlns="http://www.w3.org/2000/svg">
<path fill-rule="evenodd" clip-rule="evenodd" d="M2.01537 0.100098H16.7947C17.906 0.100098 18.81 1.00414 18.81 2.11547V16.8948C18.81 18.0061 17.906 18.9101 16.7947 18.9101H2.01537C0.904045 18.9101 0 18.0061 0 16.8948V2.11547C0 1.00414 0.904045 0.100098 2.01537 0.100098ZM16.7947 17.5665C17.1653 17.5665 17.4664 17.2654 17.4664 16.8948V2.11547C17.4664 1.74482 17.1653 1.4437 16.7947 1.4437H2.01537C1.64472 1.4437 1.3436 1.74482 1.3436 2.11547V16.8948C1.3436 17.2654 1.64472 17.5665 2.01537 17.5665H16.7947Z" fill="black"/>
<path fill-rule="evenodd" clip-rule="evenodd" d="M6.04629 4.13086H10.077C11.929 4.13086 13.4359 5.63778 13.4359 7.48978C13.4359 9.34179 11.929 10.8487 10.077 10.8487H6.71806V14.8794H5.37451V4.80263C5.37451 4.43132 5.67497 4.13086 6.04629 4.13086ZM6.71806 9.50516H10.077C11.1884 9.50516 12.0924 8.60116 12.0924 7.48983C12.0924 6.3785 11.1883 5.47446 10.077 5.47446H6.71806V9.50516Z" fill="black"/>
</svg>
