<svg width="20" height="19" viewBox="0 0 20 19" fill="none" xmlns="http://www.w3.org/2000/svg">
<path fill-rule="evenodd" clip-rule="evenodd" d="M9.18132 7.04492C10.8321 7.04492 12.3495 7.86408 13.2405 9.23595L15.3874 12.5415C15.7436 13.0902 15.908 13.7237 15.8626 14.3739C15.8173 15.024 15.5666 15.6295 15.1375 16.1248C14.7082 16.6201 14.1411 16.9586 13.4975 17.1037C13.2707 17.1547 13.0419 17.1802 12.8144 17.1802C12.3959 17.1802 11.9813 17.0943 11.5899 16.9244C10.0723 16.2657 8.33341 16.2599 6.81207 16.9072L6.77264 16.9244C6.16809 17.1867 5.50825 17.2486 4.86457 17.1035C4.2209 16.9583 3.65381 16.6198 3.22465 16.1245C2.79578 15.6291 2.54517 15.0237 2.5 14.3736C2.45483 13.7237 2.61919 13.0902 2.97539 12.5416L5.12229 9.23595C6.0131 7.86408 7.53067 7.04492 9.18132 7.04492ZM12.0571 15.8758C12.826 16.2095 13.7094 16.0103 14.2555 15.3802C14.8013 14.7503 14.8635 13.8579 14.4102 13.1597L12.2634 9.85412C11.5868 8.8125 10.4347 8.19061 9.18132 8.19061C7.92796 8.19061 6.77596 8.8125 6.09951 9.85412L3.95246 13.1598C3.49928 13.8578 3.56136 14.75 4.10685 15.3802C4.64689 16.0033 5.51731 16.205 6.28033 15.8866L6.30631 15.8752C7.21963 15.4789 8.20048 15.2808 9.18087 15.2808C10.1622 15.2808 11.1432 15.4791 12.0571 15.8758Z" fill="black"/>
<path fill-rule="evenodd" clip-rule="evenodd" d="M4.92011 7.80139C4.67765 8.48174 4.19244 8.98972 3.55375 9.23186C3.29302 9.33101 3.02322 9.37813 2.75418 9.37813C1.70052 9.37813 0.658344 8.65603 0.211503 7.51214C-0.34788 6.07496 0.240809 4.5103 1.52363 4.02349C2.16126 3.78091 2.86627 3.83697 3.50813 4.18124C4.11887 4.50911 4.60137 5.06376 4.86663 5.74321C5.13174 6.42311 5.15063 7.154 4.92011 7.80139ZM1.94056 5.09254C1.25459 5.35287 0.965 6.25373 1.29462 7.10062C1.62529 7.94677 2.45175 8.42344 3.13682 8.16281L3.13742 8.16251C3.45314 8.04279 3.69741 7.77948 3.82506 7.42134C3.96434 7.03054 3.94953 6.58086 3.78352 6.15488C3.61735 5.7292 3.32263 5.38567 2.95373 5.18782C2.74859 5.07763 2.53544 5.02202 2.32909 5.02202C2.1954 5.02202 2.06443 5.04543 1.94056 5.09254Z" fill="black"/>
<path fill-rule="evenodd" clip-rule="evenodd" d="M10.628 3.37136C10.628 5.17472 9.32329 6.64187 7.71962 6.64187C6.1161 6.64187 4.81152 5.17472 4.81152 3.37136C4.81152 1.56754 6.1161 0.100098 7.71962 0.100098C9.32329 0.100098 10.628 1.56754 10.628 3.37136ZM9.46741 3.37136C9.46741 2.19928 8.68324 1.24563 7.71962 1.24563C6.75599 1.24563 5.97213 2.19928 5.97213 3.37136C5.97213 4.54298 6.75599 5.49633 7.71962 5.49633C8.68324 5.49633 9.46741 4.54298 9.46741 3.37136Z" fill="black"/>
<path fill-rule="evenodd" clip-rule="evenodd" d="M12.7423 7.44551H12.7421C11.3447 6.98688 10.6372 5.33813 11.1652 3.77019C11.4152 3.02693 11.9049 2.40727 12.5441 2.02512C13.2131 1.62524 13.9641 1.53041 14.6581 1.75794C15.352 1.98576 15.8957 2.50523 16.1891 3.22076C16.4694 3.90438 16.4859 4.69029 16.2354 5.43355C15.8005 6.72476 14.6608 7.56494 13.4912 7.56494C13.2406 7.56494 12.989 7.52632 12.7423 7.44551ZM13.1455 3.00501C12.742 3.24625 12.4299 3.64614 12.2666 4.13146C11.9404 5.10002 12.3181 6.09899 13.1083 6.35842C13.8991 6.61771 14.8079 6.04069 15.134 5.07213C15.2976 4.58681 15.2901 4.08196 15.1132 3.65046C14.9495 3.25117 14.6579 2.9652 14.292 2.84503C13.926 2.725 13.5187 2.78181 13.1455 3.00501Z" fill="black"/>
<path fill-rule="evenodd" clip-rule="evenodd" d="M18.8664 7.06346L18.8668 7.0639C19.9712 7.87113 20.116 9.53405 19.1895 10.771C18.5993 11.5573 17.7162 11.985 16.8674 11.985C16.3804 11.985 15.9045 11.8442 15.5018 11.5497C14.3975 10.7428 14.2526 9.07989 15.1791 7.84295C16.1065 6.60661 17.7605 6.25712 18.8664 7.06346ZM16.1924 10.629C16.7832 11.061 17.7091 10.819 18.2567 10.0894C18.8023 9.36079 18.7665 8.41669 18.1766 7.9849C17.9778 7.83982 17.7413 7.77094 17.4941 7.77094C17.0054 7.77094 16.4752 8.04021 16.1122 8.52419C15.5661 9.25329 15.6021 10.1977 16.1924 10.629Z" fill="black"/>
</svg>
