<svg width="21" height="22" viewBox="0 0 21 22" fill="none" xmlns="http://www.w3.org/2000/svg">
<path fill-rule="evenodd" clip-rule="evenodd" d="M3.41382 15.0006L4.29717 14.4826C4.69016 14.2521 5.17687 14.2548 5.5672 14.4896L6.39373 14.9864C6.79303 15.2266 7.24202 15.3467 7.69134 15.3467C8.13119 15.3467 8.57137 15.2314 8.96502 15.0006L9.84838 14.4826C10.2414 14.2521 10.7281 14.2548 11.1186 14.4896L11.9449 14.9864C12.7356 15.4617 13.7208 15.467 14.5164 15.0006L15.3997 14.4826C15.7927 14.2521 16.2793 14.2548 16.6698 14.4896L17.4961 14.9864C18.2868 15.4617 19.272 15.467 20.0676 15.0006L20.9518 14.4821L20.3064 13.3812L19.422 13.8997C19.0297 14.1298 18.5437 14.1272 18.1538 13.8927L17.3273 13.3959C16.66 12.9946 15.8536 12.9279 15.1395 13.1976V3.43205C15.1395 2.24328 16.1066 1.27618 17.2954 1.27618H18.3773V0H17.2952C15.4029 0 13.8633 1.53955 13.8633 3.43205V4.47526H8.51088V3.43205C8.51088 2.24328 9.47799 1.27618 10.6668 1.27618H11.7487V0H10.6668C8.77426 0 7.23471 1.53955 7.23471 3.43205V13.9828C7.1719 13.9579 7.11041 13.9283 7.05126 13.8927L6.2249 13.3959C5.43394 12.9203 4.44789 12.9148 3.65178 13.3817L2.76826 13.8997C2.37593 14.1298 1.88989 14.1272 1.50005 13.8927L0.679015 13.3992L0.0214844 14.4929L0.842525 14.9864C1.63299 15.4617 2.61821 15.467 3.41382 15.0006ZM12.6026 13.8927L11.7761 13.3959C10.9851 12.9203 9.99909 12.9148 9.20298 13.3817L8.51088 13.7875V10.3179H13.8633V13.9038C13.4722 14.1297 12.99 14.1257 12.6026 13.8927ZM13.8632 9.04175V5.75144H8.51088V9.04175H13.8632Z" fill="black"/>
<path d="M3.41382 18.2172L4.29717 17.6993C4.69016 17.4688 5.17687 17.4715 5.5672 17.7063L6.39373 18.2031C7.18419 18.6784 8.16941 18.6837 8.96502 18.2172L9.84838 17.6993C10.2414 17.4688 10.7281 17.4715 11.1186 17.7063L11.9449 18.2031C12.7354 18.6784 13.7206 18.6839 14.5164 18.2172L15.3997 17.6993C15.7927 17.4688 16.2793 17.4715 16.6698 17.7063L17.4961 18.2031C17.8956 18.4432 18.3446 18.5634 18.7937 18.5634C19.2338 18.5634 19.6739 18.4481 20.0676 18.2172L20.9518 17.6988L20.3062 16.5979L19.422 17.1164C19.0295 17.3465 18.5437 17.3439 18.1538 17.1094L17.3273 16.6126C16.5363 16.1368 15.5505 16.1315 14.7542 16.5984L13.8708 17.1164C13.4785 17.3465 12.9925 17.3439 12.6026 17.1094L11.7763 16.6126C10.9851 16.1368 9.99909 16.1315 9.20298 16.5984L8.31962 17.1164C7.9273 17.3465 7.44126 17.3439 7.05142 17.1094L6.22507 16.6126C5.43394 16.1368 4.44789 16.1315 3.65178 16.5984L2.76842 17.1164C2.37593 17.3465 1.89005 17.3439 1.50022 17.1094L0.679181 16.6159L0.0214844 17.7094L0.842525 18.2031C1.63299 18.6784 2.61821 18.6839 3.41382 18.2172Z" fill="black"/>
<path d="M19.422 20.3333C19.0295 20.5634 18.5437 20.5607 18.1538 20.3263L17.3273 19.8294C16.5363 19.3537 15.5503 19.3482 14.7542 19.8151L13.8708 20.3333C13.4783 20.5634 12.9925 20.5607 12.6026 20.3263L11.7761 19.8294C10.9851 19.3537 9.99909 19.3484 9.20298 19.8151L8.31962 20.3333C7.9273 20.5632 7.44126 20.5607 7.05142 20.3263L6.2249 19.8294C5.43394 19.3537 4.44789 19.3484 3.65178 19.8151L2.76842 20.3333C2.37593 20.5632 1.89005 20.5607 1.50022 20.3263L0.679181 19.8326L0.0214844 20.9263L0.842525 21.42C1.63282 21.8951 2.61821 21.9006 3.41382 21.4341L4.29717 20.916C4.69016 20.6855 5.17687 20.6884 5.5672 20.923L6.39373 21.42C7.18419 21.8952 8.16941 21.9006 8.96502 21.4341L9.84838 20.916C10.2414 20.6855 10.7281 20.6884 11.1186 20.923L11.9449 21.42C12.7354 21.8951 13.7206 21.9006 14.5164 21.4341L15.3997 20.916C15.7927 20.6855 16.2793 20.6884 16.6698 20.923L17.4961 21.42C17.8956 21.6601 18.3446 21.7803 18.7937 21.7803C19.2338 21.7803 19.6739 21.6649 20.0676 21.4341L20.9518 20.9155L20.3062 19.8146L19.422 20.3333Z" fill="black"/>
</svg>
