<svg width="14" height="21" viewBox="0 0 14 21" fill="none" xmlns="http://www.w3.org/2000/svg">
<path fill-rule="evenodd" clip-rule="evenodd" d="M7.91478 1.17033C8.17679 1.56631 8.45471 1.98632 8.75667 2.43038C10.8305 5.47548 13.9281 10.0431 13.9281 12.6682C13.9281 14.5845 13.1406 16.3171 11.8805 17.5771C10.6205 18.8372 8.88792 19.6247 6.97161 19.6247C5.0553 19.6247 3.32274 18.8372 2.0627 17.6034C0.802662 16.3433 0.0151367 14.6108 0.0151367 12.6945C0.0151367 10.0694 3.11274 5.47548 5.18655 2.43038C5.65907 1.74786 6.05283 1.17034 6.39409 0.619069C6.6041 0.304059 7.02411 0.199056 7.33912 0.409063C7.41788 0.461564 7.49663 0.540317 7.54913 0.619069C7.66797 0.797333 7.78956 0.981086 7.91478 1.17033ZM6.97161 18.2596C8.52041 18.2596 9.91171 17.6559 10.9355 16.6321C11.933 15.6083 12.563 14.217 12.563 12.6682C12.563 10.5299 9.77364 6.36745 7.80938 3.43631C7.74804 3.34477 7.6875 3.25444 7.62788 3.1654C7.52597 3.0182 7.42894 2.87099 7.33469 2.728C7.21045 2.5395 7.09103 2.35832 6.97161 2.19412C6.85219 2.35832 6.73277 2.5395 6.60853 2.728C6.51428 2.87099 6.41725 3.0182 6.31534 3.1654L6.29857 3.19023C4.32973 6.10409 1.38018 10.4694 1.38018 12.6682C1.38018 14.217 1.98395 15.6083 3.00773 16.6321C4.03152 17.6296 5.42281 18.2596 6.97161 18.2596Z" fill="black"/>
<path d="M11.0404 12.1955C10.6729 12.1693 10.3579 12.458 10.3316 12.8255C10.3054 13.403 10.1216 13.9543 9.83284 14.4268C9.54409 14.8993 9.12407 15.3194 8.62531 15.5819C8.3103 15.7656 8.17904 16.1856 8.3628 16.5006C8.5728 16.8682 8.99282 16.9732 9.30783 16.7894C10.0166 16.3956 10.5941 15.8181 10.9879 15.1619C11.4079 14.5056 11.6442 13.7181 11.6704 12.9043C11.6967 12.5368 11.4079 12.2218 11.0404 12.1955Z" fill="black"/>
</svg>
