<svg width="19" height="22" viewBox="0 0 19 22" fill="none" xmlns="http://www.w3.org/2000/svg">
<path fill-rule="evenodd" clip-rule="evenodd" d="M1.99614 0H17.2273C17.8281 0 18.3152 0.487065 18.3152 1.08794V20.6708C18.3152 21.2717 17.8281 21.7588 17.2273 21.7588H1.99614C1.39527 21.7588 0.908203 21.2716 0.908203 20.6708V1.08794C0.908203 0.487065 1.39527 0 1.99614 0ZM17.2273 21.0334C17.4276 21.0334 17.5899 20.8711 17.5899 20.6708V1.08794C17.5899 0.887647 17.4276 0.725306 17.2273 0.725306H1.99614C1.79585 0.725306 1.63351 0.887647 1.63351 1.08794V20.6708C1.63351 20.8711 1.79585 21.0334 1.99614 21.0334H17.2273Z" fill="black"/>
<path d="M17.9526 1.45068H1.27083C1.07054 1.45068 0.908203 1.61302 0.908203 1.81332C0.908203 2.01361 1.07054 2.17595 1.27083 2.17595H17.9525C18.1528 2.17595 18.3152 2.01361 18.3152 1.81332C18.3152 1.61302 18.1528 1.45068 17.9526 1.45068Z" fill="black"/>
<path d="M17.9526 6.52783H1.27083C1.07054 6.52783 0.908203 6.69017 0.908203 6.89046C0.908203 7.09075 1.07054 7.2531 1.27083 7.2531H17.9525C18.1528 7.2531 18.3152 7.09075 18.3152 6.89046C18.3152 6.69017 18.1528 6.52783 17.9526 6.52783Z" fill="black"/>
<path fill-rule="evenodd" clip-rule="evenodd" d="M4.17236 13.4177C4.17236 10.4135 6.60781 7.97803 9.61205 7.97803C12.6163 7.97803 15.0517 10.4135 15.0517 13.4177C15.0517 16.422 12.6163 18.8574 9.61205 18.8574C6.60781 18.8574 4.17236 16.422 4.17236 13.4177ZM4.89767 13.4178C4.89767 16.0214 7.00835 18.1321 9.61205 18.1321C12.2157 18.1321 14.3264 16.0214 14.3264 13.4177C14.3264 10.8141 12.2157 8.70333 9.61205 8.70333C7.00835 8.70333 4.89767 10.8141 4.89767 13.4178Z" fill="black"/>
<path fill-rule="evenodd" clip-rule="evenodd" d="M5.62256 13.4178C5.62256 11.2147 7.40856 9.42871 9.61168 9.42871C11.8148 9.42871 13.6008 11.2147 13.6008 13.4178C13.6008 15.6209 11.8148 17.4069 9.61168 17.4069C7.40856 17.4069 5.62256 15.6209 5.62256 13.4178ZM6.34786 13.4178C6.34786 15.2203 7.80914 16.6816 9.61168 16.6816C11.4142 16.6816 12.8755 15.2203 12.8755 13.4178C12.8755 11.6153 11.4142 10.154 9.61168 10.154C7.80914 10.154 6.34786 11.6153 6.34786 13.4178Z" fill="black"/>
<path d="M4.17209 19.583H2.72152C2.52123 19.583 2.35889 19.7453 2.35889 19.9456C2.35889 20.1459 2.52123 20.3083 2.72152 20.3083H4.17209C4.37238 20.3083 4.53472 20.1459 4.53472 19.9456C4.53472 19.7453 4.37238 19.583 4.17209 19.583Z" fill="black"/>
<path d="M7.43613 19.583H5.62289C5.42259 19.583 5.26025 19.7453 5.26025 19.9456C5.26025 20.1459 5.42259 20.3083 5.62289 20.3083H7.43613C7.63642 20.3083 7.79876 20.1459 7.79876 19.9456C7.79876 19.7453 7.63642 19.583 7.43613 19.583Z" fill="black"/>
<path d="M10.6998 19.583H8.88656C8.68627 19.583 8.52393 19.7453 8.52393 19.9456C8.52393 20.1459 8.68627 20.3083 8.88656 20.3083H10.6998C10.9001 20.3083 11.0624 20.1459 11.0624 19.9456C11.0624 19.7453 10.9001 19.583 10.6998 19.583Z" fill="black"/>
<path d="M13.6008 19.583H12.1502C11.9499 19.583 11.7876 19.7453 11.7876 19.9456C11.7876 20.1459 11.9499 20.3083 12.1502 20.3083H13.6008C13.8011 20.3083 13.9634 20.1459 13.9634 19.9456C13.9634 19.7453 13.801 19.583 13.6008 19.583Z" fill="black"/>
<path d="M16.5022 19.583H15.0516C14.8513 19.583 14.689 19.7453 14.689 19.9456C14.689 20.1459 14.8513 20.3083 15.0516 20.3083H16.5022C16.7025 20.3083 16.8648 20.1459 16.8648 19.9456C16.8648 19.7453 16.7025 19.583 16.5022 19.583Z" fill="black"/>
<path fill-rule="evenodd" clip-rule="evenodd" d="M13.9639 4.35194C13.9639 3.55081 14.6133 2.90137 15.4144 2.90137C16.2156 2.90137 16.865 3.55081 16.865 4.35194C16.865 5.15306 16.2156 5.80251 15.4144 5.80251C14.6133 5.80251 13.9639 5.15306 13.9639 4.35194ZM14.6891 4.35194C14.6891 4.75252 15.0139 5.07724 15.4144 5.07724C15.815 5.07724 16.1397 4.75252 16.1397 4.35194C16.1397 3.95135 15.815 3.62663 15.4144 3.62663C15.0139 3.62663 14.6891 3.95135 14.6891 4.35194Z" fill="black"/>
<path d="M8.88656 3.62646C8.68627 3.62646 8.52393 3.78881 8.52393 3.9891V4.7144C8.52393 4.91469 8.68627 5.07703 8.88656 5.07703C9.08685 5.07703 9.24919 4.91469 9.24919 4.7144V3.98914C9.24923 3.78885 9.08685 3.62646 8.88656 3.62646Z" fill="black"/>
<path d="M10.3372 3.62646C10.137 3.62646 9.97461 3.78881 9.97461 3.9891V4.7144C9.97461 4.91469 10.137 5.07703 10.3372 5.07703C10.5375 5.07703 10.6999 4.91469 10.6999 4.7144V3.98914C10.6999 3.78885 10.5375 3.62646 10.3372 3.62646Z" fill="black"/>
</svg>
