<svg width="19" height="17" viewBox="0 0 19 17" fill="none" xmlns="http://www.w3.org/2000/svg">
<circle cx="9.36812" cy="15.0727" r="1.21236" fill="black"/>
<path d="M18.6128 4.83621C16.198 2.24531 12.928 0.818396 9.40488 0.818359C5.88204 0.818396 2.61208 2.24531 0.197237 4.83621C-0.0794025 5.13305 -0.0630539 5.59801 0.233791 5.87469C0.530673 6.15133 0.995596 6.13501 1.27227 5.83813C3.40603 3.54875 6.29425 2.28793 9.40514 2.28789C12.5158 2.28793 15.404 3.54875 17.5377 5.83813C17.6825 5.99339 17.8787 6.07193 18.0754 6.07193C18.2548 6.07193 18.4346 6.00661 18.5762 5.87469C18.8731 5.59797 18.8895 5.13305 18.6128 4.83621Z" fill="black"/>
<path d="M15.9146 7.87038C14.1296 6.0719 11.8177 5.08147 9.40475 5.08154C6.99123 5.08158 4.67929 6.07204 2.89483 7.87046C2.60901 8.15852 2.61081 8.62374 2.89888 8.90956C3.18694 9.19539 3.65216 9.19359 3.93798 8.90552C5.44443 7.38727 7.38591 6.55111 9.40475 6.55107C11.4231 6.551 13.3645 7.3872 14.8716 8.90559C15.0152 9.05031 15.2041 9.12275 15.3931 9.12275C15.5802 9.12275 15.7674 9.0517 15.9107 8.90949C16.1987 8.62363 16.2005 8.15841 15.9146 7.87038Z" fill="black"/>
<path d="M12.9742 10.9138C12.0183 9.96671 10.648 9.37842 9.39812 9.37842C9.39797 9.37842 9.39772 9.37842 9.39757 9.37842H9.34463C9.34441 9.37842 9.3443 9.37842 9.34408 9.37842C8.09413 9.37842 6.7238 9.96674 5.7679 10.9138C5.47965 11.1994 5.47749 11.6646 5.76309 11.9529C5.90677 12.0979 6.0959 12.1705 6.28507 12.1705C6.47195 12.1705 6.65892 12.0997 6.80216 11.9577C7.48266 11.2835 8.48036 10.8479 9.34415 10.8479C9.34426 10.8479 9.34441 10.8479 9.34452 10.8479H9.39768C9.39783 10.8479 9.39786 10.8479 9.39801 10.8479C10.2617 10.8479 11.2595 11.2836 11.9399 11.9577C12.2281 12.2433 12.6934 12.2412 12.979 11.9529C13.2646 11.6646 13.2625 11.1994 12.9742 10.9138Z" fill="black"/>
</svg>
