<svg width="100" height="20" viewBox="0 0 134 20" fill="none" xmlns="http://www.w3.org/2000/svg">
<path class="logo-svg" d="M0.32 0.849999V19H7.206C10.968 19 13.146 16.932 13.146 13.94C13.146 11.014 11.54 9.76 9.274 9.364C10.814 8.572 11.54 7.142 11.54 5.47C11.54 2.016 9.076 0.849999 5.952 0.849999H0.32ZM4.456 7.956V4.04H4.786C6.59 4.04 7.536 4.59 7.536 5.888C7.536 7.406 6.568 7.956 4.786 7.956H4.456ZM4.456 15.81V11.52H5.754C7.712 11.52 8.79 12.114 8.79 13.786C8.79 15.216 7.712 15.81 5.754 15.81H4.456ZM27.3563 0.849999H16.9723V19H27.3563V15.37H21.1083V11.718H27.0923V8.088H21.1083V4.48H27.3563V0.849999ZM31.7341 0.849999V19H36.9921C41.9861 19 46.1441 15.216 46.1441 9.914C46.1441 4.634 41.9641 0.849999 36.9921 0.849999H31.7341ZM35.8701 15.304V4.546H36.5081C39.5881 4.546 41.6781 6.9 41.6781 9.936C41.6561 12.972 39.5661 15.304 36.5081 15.304H35.8701ZM56.2346 0.519999C53.3086 0.519999 50.3166 2.676 50.3166 6.064C50.3166 7.956 51.5926 9.65 53.7706 10.728C55.9266 11.806 57.8626 12.4 57.8626 13.72C57.8626 15.414 56.1466 15.502 55.2446 15.502C53.2206 15.502 50.8006 13.456 50.8006 13.456L48.7326 16.932C48.7326 16.932 51.3066 19.33 55.5526 19.33C59.0946 19.33 62.3946 17.812 62.3946 13.478C62.3946 11.102 60.1726 9.386 58.1486 8.528C56.0806 7.648 54.3646 6.922 54.3646 5.91C54.3646 4.92 55.1126 4.282 56.5206 4.282C58.3906 4.282 60.1946 5.536 60.1946 5.536L61.8666 2.236C61.8666 2.236 59.5346 0.519999 56.2346 0.519999ZM66.3278 0.849999V19H70.4638V12.268H72.9498C76.4918 12.268 79.1538 10.178 79.1538 6.438C79.1538 2.676 76.4918 0.849999 72.9498 0.849999H66.3278ZM70.4638 8.968V4.15H71.6298C73.2578 4.15 74.7978 4.7 74.7978 6.57C74.7978 8.418 73.2578 8.968 71.6298 8.968H70.4638ZM90.7802 0.849999H86.9522L79.6262 19H84.0702L85.4122 15.37H92.3202L93.6622 19H98.1062L90.7802 0.849999ZM90.9122 11.74H86.8202L88.8442 6.46H88.8882L90.9122 11.74ZM109.763 15.26C105.605 15.26 103.779 12.356 103.779 9.914C103.779 7.494 105.605 4.59 109.763 4.59C111.875 4.59 113.327 5.712 113.327 5.712L115.087 2.192C115.087 2.192 113.063 0.519999 109.125 0.519999C103.977 0.519999 99.2912 4.744 99.2912 9.958C99.2912 15.15 103.999 19.33 109.125 19.33C113.063 19.33 115.087 17.658 115.087 17.658L113.327 14.138C113.327 14.138 111.875 15.26 109.763 15.26ZM118.67 0.849999V19H122.806V11.828L128.35 19H133.608L127.36 11.498C129.582 10.794 131.078 8.968 131.078 6.24C131.078 2.676 128.526 0.849999 125.16 0.849999H118.67ZM122.806 8.902V4.15H123.29C124.852 4.15 126.722 4.26 126.722 6.526C126.722 8.792 124.852 8.902 123.29 8.902H122.806Z" fill="#0A0A0A"/>
</svg>
