<svg width="171" height="25" viewBox="0 0 171 25" fill="none" xmlns="http://www.w3.org/2000/svg">
<path d="M0.68 0.899999V24H9.444C14.232 24 17.004 21.368 17.004 17.56C17.004 13.836 14.96 12.24 12.076 11.736C14.036 10.728 14.96 8.908 14.96 6.78C14.96 2.384 11.824 0.899999 7.848 0.899999H0.68ZM5.944 9.944V4.96H6.364C8.66 4.96 9.864 5.66 9.864 7.312C9.864 9.244 8.632 9.944 6.364 9.944H5.944ZM5.944 19.94V14.48H7.596C10.088 14.48 11.46 15.236 11.46 17.364C11.46 19.184 10.088 19.94 7.596 19.94H5.944ZM35.0899 0.899999H21.8739V24H35.0899V19.38H27.1379V14.732H34.7539V10.112H27.1379V5.52H35.0899V0.899999ZM40.6615 0.899999V24H47.3535C53.7095 24 59.0015 19.184 59.0015 12.436C59.0015 5.716 53.6815 0.899999 47.3535 0.899999H40.6615ZM45.9255 19.296V5.604H46.7375C50.6575 5.604 53.3175 8.6 53.3175 12.464C53.2895 16.328 50.6295 19.296 46.7375 19.296H45.9255ZM71.844 0.479999C68.12 0.479999 64.312 3.224 64.312 7.536C64.312 9.944 65.936 12.1 68.708 13.472C71.452 14.844 73.916 15.6 73.916 17.28C73.916 19.436 71.732 19.548 70.584 19.548C68.008 19.548 64.928 16.944 64.928 16.944L62.296 21.368C62.296 21.368 65.572 24.42 70.976 24.42C75.484 24.42 79.684 22.488 79.684 16.972C79.684 13.948 76.856 11.764 74.28 10.672C71.648 9.552 69.464 8.628 69.464 7.34C69.464 6.08 70.416 5.268 72.208 5.268C74.588 5.268 76.884 6.864 76.884 6.864L79.012 2.664C79.012 2.664 76.044 0.479999 71.844 0.479999ZM84.6899 0.899999V24H89.9539V15.432H93.1179C97.6259 15.432 101.014 12.772 101.014 8.012C101.014 3.224 97.6259 0.899999 93.1179 0.899999H84.6899ZM89.9539 11.232V5.1H91.4379C93.5099 5.1 95.4699 5.8 95.4699 8.18C95.4699 10.532 93.5099 11.232 91.4379 11.232H89.9539ZM115.811 0.899999H110.939L101.615 24H107.271L108.979 19.38H117.771L119.479 24H125.135L115.811 0.899999ZM115.979 14.76H110.771L113.347 8.04H113.403L115.979 14.76ZM139.971 19.24C134.679 19.24 132.355 15.544 132.355 12.436C132.355 9.356 134.679 5.66 139.971 5.66C142.659 5.66 144.507 7.088 144.507 7.088L146.747 2.608C146.747 2.608 144.171 0.479999 139.159 0.479999C132.607 0.479999 126.643 5.856 126.643 12.492C126.643 19.1 132.635 24.42 139.159 24.42C144.171 24.42 146.747 22.292 146.747 22.292L144.507 17.812C144.507 17.812 142.659 19.24 139.971 19.24ZM151.307 0.899999V24H156.571V14.872L163.627 24H170.319L162.367 14.452C165.195 13.556 167.099 11.232 167.099 7.76C167.099 3.224 163.851 0.899999 159.567 0.899999H151.307ZM156.571 11.148V5.1H157.187C159.175 5.1 161.555 5.24 161.555 8.124C161.555 11.008 159.175 11.148 157.187 11.148H156.571Z" fill="white"/>
</svg>
