<svg width="25" height="26" viewBox="0 0 25 26" fill="none" xmlns="http://www.w3.org/2000/svg">
<g id="facebook">
<path id="Path" d="M14.5155 24.8384C14.4113 24.8731 14.3068 24.9052 14.2019 24.9345C14.3068 24.9052 14.4113 24.8731 14.5155 24.8384Z" fill="black"/>
<path id="Path_2" d="M14.7656 24.8064C14.7158 24.8252 14.666 24.8424 14.6162 24.86C14.666 24.8424 14.7158 24.8252 14.7656 24.8064Z" fill="black"/>
<path id="Path_3" d="M13.9227 24.9255C13.8008 24.9536 13.6782 24.9786 13.5552 24.9997C13.6782 24.9786 13.8008 24.9536 13.9227 24.9255Z" fill="black"/>
<path id="Path_4" d="M14.1628 24.9038C14.1043 24.9198 14.0453 24.9346 13.9866 24.9487C14.0453 24.9346 14.1043 24.9198 14.1628 24.9038Z" fill="black"/>
<path id="Path_5" d="M15.1059 24.7382C15.062 24.7574 15.0179 24.7765 14.9739 24.7949C15.0179 24.7765 15.062 24.7574 15.1059 24.7382Z" fill="black"/>
<path id="Path_6" d="M15.9504 24.5273C15.9149 24.548 15.8795 24.5675 15.844 24.5878C15.8795 24.5675 15.9149 24.548 15.9504 24.5273Z" fill="black"/>
<path id="Path_7" d="M15.6951 24.5968C15.6565 24.6175 15.6178 24.6386 15.5791 24.6585C15.6178 24.6386 15.6565 24.6179 15.6951 24.5968Z" fill="black"/>
<path id="Path_8" d="M15.3608 24.6816C15.3199 24.7011 15.2787 24.7195 15.2375 24.7382C15.2787 24.7195 15.3199 24.7011 15.3608 24.6816Z" fill="black"/>
<path id="Path_9" d="M13.5511 24.9732C13.4853 24.9846 13.4195 24.9947 13.3535 25.0037C13.4195 24.9947 13.4853 24.9846 13.5511 24.9732Z" fill="black"/>
<path id="Path_10" d="M25 12.5C25 5.5975 19.4025 0 12.5 0C5.5975 0 0 5.5975 0 12.5C0 19.4025 5.5975 25 12.5 25C12.5734 25 12.6465 24.9985 12.7197 24.9971V15.2664H10.0342V12.1367H12.7197V9.83353C12.7197 7.16248 14.3503 5.70869 16.733 5.70869C17.874 5.70869 18.8547 5.79376 19.1406 5.83172V8.62331H17.4976C16.2014 8.62331 15.9504 9.23939 15.9504 10.1433V12.1367H19.0498L18.6459 15.2664H15.9504V24.5171C21.1752 23.0192 25 18.2056 25 12.5Z" fill="#3B5998"/>
<path id="Path_11" d="M13.3259 24.9876C13.1958 25.0048 13.0651 25.0185 12.9341 25.0274C13.0651 25.0185 13.1958 25.0048 13.3259 24.9876Z" fill="black"/>
<path id="Path_12" d="M13.0325 13.6326C12.9285 14.5994 12.8242 15.3245 12.72 15.8079C12.8242 15.3245 12.9285 14.5994 13.0325 13.6326Z" fill="#3B5998"/>
</g>
</svg>
