<svg width="326" height="225" viewBox="0 0 326 225" fill="none" xmlns="http://www.w3.org/2000/svg">
<g id="image (1)">
<g id="Background">
<path id="Combined-Shape" d="M292.189 109.016C292.194 109.424 292.196 109.832 292.196 110.241C292.196 171.126 242.804 220.483 181.877 220.483C120.95 220.483 71.5581 171.126 71.5581 110.241C71.5581 94.5626 74.8334 79.6485 80.7376 66.1448H132.853C138.265 66.1448 142.652 61.7575 142.652 56.3455C142.652 50.9336 138.265 46.5463 132.853 46.5463H91.8244C111.81 18.3812 144.695 0 181.877 0C235.68 0 280.488 38.4895 290.231 89.4179H287.286C281.874 89.4179 277.487 93.8052 277.487 99.2171C277.487 104.629 281.874 109.016 287.286 109.016H292.189Z" fill="#F0FBFF"/>
<rect id="Rectangle-18" y="65.5488" width="29.8159" height="19.8633" rx="9.93164" fill="#F1FAFF"/>
<rect id="Rectangle-18-Copy" x="37.7668" y="65.5488" width="73.5459" height="19.8633" rx="9.93164" fill="#F1FAFF"/>
<rect id="Rectangle-18-Copy-5" x="63.6072" y="25.8223" width="73.5459" height="19.8633" rx="9.93164" fill="#F1FAFF"/>
<rect id="Rectangle-18-Copy-3" x="252.441" y="69.5215" width="73.5459" height="19.8633" rx="9.93164" fill="#F1FAFF"/>
<rect id="Rectangle-18-Copy-4" x="240.515" y="109.248" width="73.5459" height="19.8633" rx="9.93164" fill="#F1FAFF"/>
</g>
<g id="Group-25">
<g id="Group-23">
<g id="Group-Copy">
<path id="Shape" d="M74.9309 176.361C74.7194 175.496 74.5949 174.595 74.5949 173.662C74.5949 167.55 79.4154 162.595 85.3617 162.595C85.9862 162.595 86.5944 162.662 87.1896 162.767C89.0722 161.585 91.2766 160.893 93.6437 160.893C100.505 160.893 106.067 166.61 106.067 173.662C106.067 173.978 106.043 174.288 106.021 174.599C109.132 178.205 111.036 182.935 111.036 188.134C111.036 199.417 102.137 208.564 91.159 208.564C80.181 208.564 71.2817 199.417 71.2817 188.134C71.282 183.746 72.6403 179.69 74.9309 176.361Z" fill="#00A07D"/>
<g id="Group">
<path id="Shape_2" d="M91.9686 222.032H88.6284L89.4299 186.896H90.2984L91.9686 222.032Z" fill="#805F59"/>
<path id="Shape_3" d="M89.7306 200.453L82.2149 194.106L81.313 194.626L89.7306 202.43V200.453Z" fill="#805F59"/>
<path id="Shape_4" d="M90.2315 192.765L85.1318 188.457L84.5195 188.81L90.2315 194.106V192.765Z" fill="#805F59"/>
<path id="Shape_5" d="M90.2314 197.123L97.7472 190.776L98.6491 191.297L90.2314 199.1V197.123Z" fill="#805F59"/>
</g>
<path id="Shape_6" d="M106.305 174.649C106.326 174.337 106.349 174.026 106.349 173.708C106.349 166.63 101.102 160.893 94.6303 160.893C92.3975 160.893 90.3182 161.588 88.5421 162.773C87.9807 162.668 87.407 162.601 86.818 162.601C83.7852 162.601 81.0936 164.085 79.2327 166.39C80.3056 165.968 81.4456 165.698 82.6511 165.698C83.2402 165.698 83.8138 165.765 84.3753 165.87C86.1513 164.685 88.2307 163.989 90.4635 163.989C96.9355 163.989 102.182 169.727 102.182 176.805C102.182 177.123 102.16 177.434 102.139 177.745C105.073 181.364 106.87 186.112 106.87 191.329C106.87 197.392 104.449 202.824 100.623 206.578C106.789 203.22 111.036 196.277 111.036 188.232C111.036 183.015 109.24 178.268 106.305 174.649Z" fill="#36B294"/>
</g>
<g id="Group-Copy-2">
<path id="Shape_7" d="M108.722 176.361C108.511 175.496 108.386 174.595 108.386 173.662C108.386 167.55 113.207 162.595 119.153 162.595C119.777 162.595 120.386 162.662 120.981 162.767C122.863 161.585 125.068 160.893 127.435 160.893C134.296 160.893 139.858 166.61 139.858 173.662C139.858 173.978 139.834 174.288 139.812 174.599C142.923 178.205 144.828 182.935 144.828 188.134C144.828 199.417 135.928 208.564 124.95 208.564C113.972 208.564 105.073 199.417 105.073 188.134C105.073 183.746 106.432 179.69 108.722 176.361Z" fill="#00A07D"/>
<g id="Group_2">
<path id="Shape_8" d="M125.76 222.032H122.42L123.221 186.896H124.09L125.76 222.032Z" fill="#805F59"/>
<path id="Shape_9" d="M123.522 200.453L116.006 194.106L115.104 194.626L123.522 202.43V200.453Z" fill="#805F59"/>
<path id="Shape_10" d="M124.023 192.765L118.923 188.457L118.311 188.81L124.023 194.106V192.765Z" fill="#805F59"/>
<path id="Shape_11" d="M124.023 197.123L131.538 190.776L132.44 191.297L124.023 199.1V197.123Z" fill="#805F59"/>
</g>
<path id="Shape_12" d="M140.097 174.649C140.117 174.337 140.14 174.026 140.14 173.708C140.14 166.63 134.894 160.893 128.422 160.893C126.189 160.893 124.109 161.588 122.333 162.773C121.772 162.668 121.198 162.601 120.609 162.601C117.576 162.601 114.885 164.085 113.024 166.39C114.097 165.968 115.237 165.698 116.442 165.698C117.031 165.698 117.605 165.765 118.167 165.87C119.943 164.685 122.022 163.989 124.255 163.989C130.727 163.989 135.973 169.727 135.973 176.805C135.973 177.123 135.951 177.434 135.93 177.745C138.864 181.364 140.661 186.112 140.661 191.329C140.661 197.392 138.24 202.824 134.414 206.578C140.58 203.22 144.828 196.277 144.828 188.232C144.828 183.015 143.031 178.268 140.097 174.649Z" fill="#36B294"/>
</g>
<g id="Group_3">
<path id="Shape_13" d="M94.2607 183.715C94.0809 182.994 93.9751 182.243 93.9751 181.465C93.9751 176.372 98.0726 172.243 103.127 172.243C103.658 172.243 104.175 172.298 104.681 172.386C106.281 171.402 108.155 170.824 110.167 170.824C115.999 170.824 120.726 175.588 120.726 181.465C120.726 181.729 120.706 181.987 120.687 182.246C123.331 185.251 124.95 189.193 124.95 193.525C124.95 202.928 117.386 210.551 108.055 210.551C98.7233 210.551 91.1589 202.928 91.1589 193.525C91.1592 189.868 92.3137 186.489 94.2607 183.715Z" fill="#00A07D"/>
<g id="Shape_14">
<path id="Path" d="M108.664 222.105H105.695L106.407 192.825H107.179L108.664 222.105Z" fill="#805F59"/>
<path id="Path_2" d="M106.674 204.123L99.9938 198.833L99.1921 199.267L106.674 205.77V204.123Z" fill="#805F59"/>
<path id="Path_3" d="M107.12 197.715L102.587 194.126L102.042 194.42L107.12 198.833V197.715Z" fill="#805F59"/>
<path id="Path_4" d="M107.12 201.348L113.8 196.058L114.602 196.492L107.12 202.995V201.348Z" fill="#805F59"/>
</g>
<path id="Shape_15" d="M120.811 182.188C120.829 181.93 120.849 181.673 120.849 181.411C120.849 175.564 116.258 170.824 110.595 170.824C108.641 170.824 106.822 171.398 105.268 172.378C104.777 172.291 104.275 172.236 103.759 172.236C101.106 172.236 98.7504 173.461 97.1221 175.365C98.0609 175.017 99.0584 174.794 100.113 174.794C100.629 174.794 101.131 174.849 101.622 174.936C103.176 173.957 104.995 173.382 106.949 173.382C112.612 173.382 117.203 178.122 117.203 183.969C117.203 184.232 117.183 184.489 117.165 184.746C119.732 187.736 121.304 191.657 121.304 195.967C121.304 200.976 119.186 205.463 115.839 208.564C121.234 205.79 124.95 200.055 124.95 193.409C124.95 189.099 123.378 185.178 120.811 182.188Z" fill="#36B294"/>
</g>
<g id="Group-Copy-5">
<path id="Shape_16" d="M212.084 176.361C211.872 175.496 211.748 174.595 211.748 173.662C211.748 167.55 216.568 162.595 222.515 162.595C223.139 162.595 223.747 162.662 224.343 162.767C226.225 161.585 228.43 160.893 230.797 160.893C237.658 160.893 243.22 166.61 243.22 173.662C243.22 173.978 243.196 174.288 243.174 174.599C246.285 178.205 248.189 182.935 248.189 188.134C248.189 199.417 239.29 208.564 228.312 208.564C217.334 208.564 208.435 199.417 208.435 188.134C208.435 183.746 209.793 179.69 212.084 176.361Z" fill="#00A07D"/>
<g id="Group_4">
<path id="Shape_17" d="M229.122 222.032H225.781L226.583 186.896H227.451L229.122 222.032Z" fill="#805F59"/>
<path id="Shape_18" d="M226.884 200.453L219.368 194.106L218.466 194.626L226.884 202.43V200.453Z" fill="#805F59"/>
<path id="Shape_19" d="M227.385 192.765L222.285 188.457L221.673 188.81L227.385 194.106V192.765Z" fill="#805F59"/>
<path id="Shape_20" d="M227.385 197.123L234.9 190.776L235.802 191.297L227.385 199.1V197.123Z" fill="#805F59"/>
</g>
<path id="Shape_21" d="M243.458 174.649C243.479 174.337 243.502 174.026 243.502 173.708C243.502 166.63 238.255 160.893 231.783 160.893C229.551 160.893 227.471 161.588 225.695 162.773C225.134 162.668 224.56 162.601 223.971 162.601C220.938 162.601 218.247 164.085 216.386 166.39C217.459 165.968 218.599 165.698 219.804 165.698C220.393 165.698 220.967 165.765 221.528 165.87C223.304 164.685 225.384 163.989 227.617 163.989C234.089 163.989 239.335 169.727 239.335 176.805C239.335 177.123 239.313 177.434 239.292 177.745C242.226 181.364 244.023 186.112 244.023 191.329C244.023 197.392 241.602 202.824 237.776 206.578C243.942 203.22 248.189 196.277 248.189 188.232C248.189 183.015 246.393 178.268 243.458 174.649Z" fill="#36B294"/>
</g>
<g id="Group-Copy-4">
<path id="Shape_22" d="M245.875 176.361C245.664 175.496 245.539 174.595 245.539 173.662C245.539 167.55 250.36 162.595 256.306 162.595C256.931 162.595 257.539 162.662 258.134 162.767C260.017 161.585 262.221 160.893 264.588 160.893C271.449 160.893 277.012 166.61 277.012 173.662C277.012 173.978 276.988 174.288 276.965 174.599C280.076 178.205 281.981 182.935 281.981 188.134C281.981 199.417 273.082 208.564 262.104 208.564C251.126 208.564 242.226 199.417 242.226 188.134C242.227 183.746 243.585 179.69 245.875 176.361Z" fill="#00A07D"/>
<g id="Group_5">
<path id="Shape_23" d="M262.913 222.032H259.573L260.374 186.896H261.243L262.913 222.032Z" fill="#805F59"/>
<path id="Shape_24" d="M260.675 200.453L253.159 194.106L252.258 194.626L260.675 202.43V200.453Z" fill="#805F59"/>
<path id="Shape_25" d="M261.176 192.765L256.076 188.457L255.464 188.81L261.176 194.106V192.765Z" fill="#805F59"/>
<path id="Shape_26" d="M261.176 197.123L268.692 190.776L269.594 191.297L261.176 199.1V197.123Z" fill="#805F59"/>
</g>
<path id="Shape_27" d="M277.25 174.649C277.271 174.337 277.293 174.026 277.293 173.708C277.293 166.63 272.047 160.893 265.575 160.893C263.342 160.893 261.263 161.588 259.487 162.773C258.925 162.668 258.352 162.601 257.763 162.601C254.73 162.601 252.038 164.085 250.177 166.39C251.25 165.968 252.39 165.698 253.596 165.698C254.185 165.698 254.758 165.765 255.32 165.87C257.096 164.685 259.175 163.989 261.408 163.989C267.88 163.989 273.127 169.727 273.127 176.805C273.127 177.123 273.104 177.434 273.083 177.745C276.018 181.364 277.814 186.112 277.814 191.329C277.814 197.392 275.393 202.824 271.568 206.578C277.734 203.22 281.981 196.277 281.981 188.232C281.981 183.015 280.185 178.268 277.25 174.649Z" fill="#36B294"/>
</g>
<g id="Group-Copy-3">
<path id="Shape_28" d="M231.414 183.715C231.234 182.994 231.128 182.243 231.128 181.465C231.128 176.372 235.226 172.243 240.28 172.243C240.811 172.243 241.328 172.298 241.834 172.386C243.434 171.402 245.308 170.824 247.32 170.824C253.152 170.824 257.88 175.588 257.88 181.465C257.88 181.729 257.859 181.987 257.841 182.246C260.485 185.251 262.104 189.193 262.104 193.525C262.104 202.928 254.539 210.551 245.208 210.551C235.877 210.551 228.312 202.928 228.312 193.525C228.312 189.868 229.467 186.489 231.414 183.715Z" fill="#00A07D"/>
<g id="Group_6">
<path id="Shape_29" d="M245.817 222.105H242.848L243.56 192.825H244.332L245.817 222.105Z" fill="#805F59"/>
<path id="Shape_30" d="M243.828 204.123L237.147 198.833L236.345 199.267L243.828 205.77V204.123Z" fill="#805F59"/>
<path id="Shape_31" d="M244.273 197.715L239.74 194.126L239.196 194.42L244.273 198.833V197.715Z" fill="#805F59"/>
<path id="Shape_32" d="M244.273 201.348L250.954 196.058L251.755 196.492L244.273 202.995V201.348Z" fill="#805F59"/>
</g>
<path id="Shape_33" d="M257.964 182.188C257.982 181.93 258.002 181.673 258.002 181.411C258.002 175.564 253.411 170.824 247.748 170.824C245.795 170.824 243.975 171.398 242.421 172.378C241.93 172.291 241.428 172.236 240.913 172.236C238.259 172.236 235.904 173.461 234.275 175.365C235.214 175.017 236.212 174.794 237.267 174.794C237.782 174.794 238.284 174.849 238.775 174.936C240.329 173.957 242.149 173.382 244.102 173.382C249.765 173.382 254.356 178.122 254.356 183.969C254.356 184.232 254.336 184.489 254.318 184.746C256.886 187.736 258.458 191.657 258.458 195.967C258.458 200.976 256.339 205.463 252.992 208.564C258.387 205.79 262.104 200.055 262.104 193.409C262.104 189.099 260.532 185.178 257.964 182.188Z" fill="#36B294"/>
</g>
</g>
<g id="Group-22">
<g id="Group-20">
<path id="Shape_34" fillRule="evenodd" clipRule="evenodd" d="M158.742 51.7241C158.742 42.0044 166.695 34.0884 176.631 33.7676C186.567 34.0884 194.521 42.0044 194.521 51.7241C194.521 64.6097 179.935 83.6061 177.104 87.1724C176.865 87.4738 176.397 87.4738 176.158 87.1724C173.327 83.6064 158.742 64.6097 158.742 51.7241ZM168.078 51.8689C168.078 56.4528 171.907 60.1686 176.631 60.1686C181.355 60.1686 185.184 56.4526 185.184 51.8689C185.184 47.2853 181.355 43.5693 176.631 43.5693C171.908 43.5693 168.078 47.2851 168.078 51.8689Z" fill="#FF4C4C"/>
<path id="Shape_35" d="M176.446 33.7676C174.271 33.8372 172.19 34.2647 170.264 34.9888C174.911 36.7357 178.649 40.2172 180.623 44.603C183.285 46.0176 185.088 48.7409 185.088 51.8697C185.088 54.52 183.793 56.8785 181.78 58.398C180.872 67.6872 178.47 79.6522 176.259 87.369C176.491 87.442 176.76 87.3799 176.924 87.1754C179.785 83.6089 194.521 64.6112 194.521 51.7251C194.521 42.0049 186.485 34.0885 176.446 33.7676Z" fill="#F33A3A"/>
</g>
<g id="Group-21">
<rect id="Rectangle-path" x="139.511" y="111.702" width="15.5905" height="22.9402" fill="#FFB125"/>
<rect id="Rectangle-path_2" x="147.677" y="111.702" width="8.16644" height="22.9402" fill="#FF901D"/>
<path id="Shape_36" d="M157.495 114.662H137.118C136.8 114.662 136.542 114.389 136.542 114.052V107.872C136.542 107.535 136.8 107.262 137.118 107.262H157.495C157.813 107.262 158.071 107.535 158.071 107.872V114.052C158.071 114.389 157.813 114.662 157.495 114.662Z" fill="#FFB125"/>
<path id="Shape_37" d="M222.639 147.399L176.621 116.882L130.602 147.399V219.743H222.66V147.399H222.639Z" fill="#E1EFFB"/>
<path id="Shape_38" d="M222.639 147.399L176.712 116.882L169.207 121.869L207.63 147.399H207.651V219.743H222.66V147.399H222.639Z" fill="#CCDFED"/>
<path id="Shape_39" d="M122.031 155.35L175.854 119.762C176.325 119.45 176.938 119.45 177.409 119.762L231.231 155.35C232.747 156.353 234.72 156.353 236.235 155.35C238.923 153.574 238.923 149.65 236.235 147.873L177.409 108.975C176.938 108.664 176.325 108.664 175.854 108.975L117.027 147.873C114.34 149.65 114.34 153.574 117.027 155.35C118.543 156.353 120.515 156.353 122.031 155.35Z" fill="#FF4C4C"/>
<path id="Shape_40" d="M166.905 166.462H143.297C142.436 166.462 141.738 167.165 141.738 168.033V219.743H168.465V168.033C168.465 167.166 167.767 166.462 166.905 166.462Z" fill="#FFB125"/>
<path id="Shape_41" d="M210.039 196.062H179.601V178.618C179.601 178.035 180.068 177.562 180.644 177.562H208.996C209.572 177.562 210.039 178.035 210.039 178.618V196.062Z" fill="#61AFF6"/>
<path id="Shape_42" d="M209.713 177.562H195.191V196.062H210.782V178.618C210.782 178.035 210.303 177.562 209.713 177.562Z" fill="#55A2F0"/>
<path id="Shape_43" d="M177.584 198.282H213.541C214.887 198.282 215.979 197.123 215.979 195.692C215.979 194.262 214.887 193.102 213.541 193.102H177.584C176.238 193.102 175.146 194.262 175.146 195.692C175.146 197.123 176.238 198.282 177.584 198.282Z" fill="#CCDFED"/>
<path id="Shape_44" d="M166.891 166.462H155.102V219.743H168.465V168.033C168.465 167.166 167.76 166.462 166.891 166.462Z" fill="#FF901D"/>
<path id="Shape_45" d="M232.228 213.083H121.777C119.681 213.083 117.981 214.739 117.981 216.783C117.981 218.826 119.681 220.483 121.777 220.483H232.228C234.324 220.483 236.024 218.826 236.024 216.783C236.024 214.739 234.324 213.083 232.228 213.083Z" fill="#2D5871"/>
<path id="Shape_46" d="M235.969 216.194V216.179C235.965 216.158 235.959 216.138 235.956 216.117C235.941 216.04 235.925 215.963 235.906 215.888C235.891 215.831 235.873 215.775 235.856 215.718C235.839 215.664 235.824 215.608 235.805 215.555C235.764 215.442 235.718 215.332 235.667 215.224C235.665 215.221 235.663 215.216 235.661 215.212C235.661 215.213 235.661 215.213 235.661 215.214C235.056 213.955 233.748 213.083 232.228 213.083H220.877L220.886 214.353C220.898 216.001 219.531 217.342 217.841 217.342H121.778C120.258 217.342 118.951 216.469 118.344 215.212C118.114 215.689 117.981 216.22 117.981 216.783C117.981 218.826 119.681 220.483 121.777 220.483H220.929H232.227C232.353 220.483 232.476 220.476 232.599 220.464C232.641 220.461 232.681 220.453 232.723 220.448C232.802 220.438 232.881 220.427 232.959 220.413C233.009 220.403 233.057 220.391 233.106 220.379C233.173 220.363 233.24 220.348 233.306 220.329C233.359 220.314 233.411 220.296 233.463 220.278C233.522 220.259 233.58 220.239 233.637 220.216C233.693 220.194 233.747 220.171 233.801 220.147C233.851 220.125 233.902 220.101 233.951 220.076C234.008 220.048 234.064 220.018 234.12 219.987C234.162 219.963 234.204 219.938 234.245 219.913C234.304 219.876 234.363 219.84 234.419 219.8C234.452 219.778 234.484 219.754 234.515 219.73C234.578 219.684 234.639 219.638 234.698 219.588C234.718 219.572 234.736 219.554 234.756 219.537C235.532 218.86 236.024 217.879 236.024 216.783C236.024 216.581 236.001 216.386 235.969 216.194Z" fill="#1D4859"/>
<path id="Shape_47" d="M236.235 147.873L177.409 108.975C177.173 108.819 176.903 108.742 176.631 108.742V119.528C176.903 119.528 177.173 119.606 177.409 119.762L231.231 155.35C232.747 156.353 234.72 156.353 236.235 155.35C238.923 153.574 238.923 149.65 236.235 147.873Z" fill="#F33A3A"/>
</g>
</g>
</g>
<g id="Group-24">
<g id="Rectangle-19">
<g id="path-1-link">
<rect id="path-1" x="91.4355" y="220.482" width="176.908" height="3.97266" rx="1.98633" fill="#D8D8D8"/>
</g>
<rect id="Rectangle" x="92.429" y="221.476" width="174.921" height="1.98569" rx="0.992844" stroke="#CCDFED" stroke-width="1.98697"/>
</g>
</g>
</g>
</svg>
