<svg width="20" height="21" viewBox="0 0 20 21" fill="none" xmlns="http://www.w3.org/2000/svg">
<path d="M19.4628 8.69992C19.4623 8.69946 19.4618 8.69901 19.4614 8.69855L11.3021 0.539606C10.9544 0.19167 10.492 0 10.0001 0C9.50828 0 9.04589 0.191517 8.69796 0.539453L0.542984 8.69428C0.540237 8.69702 0.53749 8.69992 0.534743 8.70267C-0.179441 9.42097 -0.17822 10.5864 0.538253 11.3029C0.865587 11.6304 1.29791 11.8201 1.76015 11.8399C1.77892 11.8417 1.79784 11.8426 1.81692 11.8426H2.14212V17.8471C2.14212 19.0353 3.10886 20.002 4.29733 20.002H7.48949C7.81301 20.002 8.07549 19.7397 8.07549 19.416V14.7085C8.07549 14.1663 8.51651 13.7253 9.05871 13.7253H10.9415C11.4837 13.7253 11.9248 14.1663 11.9248 14.7085V19.416C11.9248 19.7397 12.1871 20.002 12.5108 20.002H15.7029C16.8914 20.002 17.8581 19.0353 17.8581 17.8471V11.8426H18.1597C18.6514 11.8426 19.1138 11.6511 19.4618 11.3032C20.1791 10.5855 20.1794 9.41807 19.4628 8.69992V8.69992Z" fill="white"/>
</svg>
