<?xml version="1.0" encoding="UTF-8"?>
<svg width="20px" height="20px" viewBox="0 0 20 20" version="1.1" xmlns="http://www.w3.org/2000/svg" xmlns:xlink="http://www.w3.org/1999/xlink">
    <!-- Generator: Sketch 63.1 (92452) - https://sketch.com -->
    <title>search</title>
    <desc>Created with Sketch.</desc>
    <g id="Page-1" stroke="none" stroke-width="1" fill="none" fillRule="evenodd">
        <g id="Not-Logged-In-Navbar" transform="translate(-456.000000, -25.000000)" fill="#FFFFFF" fillRule="nonzero">
            <g id="search" transform="translate(456.000000, 25.000000)">
                <path className="search-icon" d="M14.6770683,12.9095078 C15.6612447,11.5655271 16.2499273,9.91469437 16.2499273,8.12506061 C16.2499273,3.6450991 12.6049058,7.7585839e-05 8.12494424,7.7585839e-05 C3.64498272,7.7585839e-05 0,3.6450991 0,8.12506061 C0,12.6050221 3.64502151,16.2500436 8.12498303,16.2500436 C9.91461678,16.2500436 11.5656046,15.6612835 12.9095853,14.6771071 L18.2324394,19.9999612 L20,18.2324006 C20,18.2323618 14.6770683,12.9095078 14.6770683,12.9095078 L14.6770683,12.9095078 Z M8.12498303,13.7500339 C5.02317877,13.7500339 2.5000097,11.2268649 2.5000097,8.12506061 C2.5000097,5.02325636 5.02317877,2.50008728 8.12498303,2.50008728 C11.2267873,2.50008728 13.7499564,5.02325636 13.7499564,8.12506061 C13.7499564,11.2268649 11.2267485,13.7500339 8.12498303,13.7500339 Z" id="Shape"></path>
            </g>
        </g>
    </g>
</svg>